<svg width="717" height="750" viewBox="0 0 717 750" fill="none" xmlns="http://www.w3.org/2000/svg">
<path d="M25.2031 345.113C25.2031 419.12 51.8694 487.533 96.7181 541.64C156.718 616.267 251.87 664.153 358.537 664.153C358.537 664.153 475.76 707.197 553.757 723.51C580.76 729.16 610.724 710.64 610.724 685.577C610.724 655.087 558.537 600.1 558.537 600.1C595.697 573.633 626.767 539.873 649.54 501.027C676.534 454.98 691.87 401.787 691.87 345.113C691.87 288.292 676.517 234.99 649.54 188.862C624.554 146.134 589.594 109.561 547.627 82.0476C493.687 45.9769 428.84 25.4556 358.537 25.4556C174.294 25.4556 25.2031 168.492 25.2031 345.113Z" stroke="#ffffff" stroke-width="50" stroke-linecap="round" stroke-linejoin="round"/>
</svg>
