<svg width="400" height="700" viewBox="0 0 400 700" fill="none" xmlns="http://www.w3.org/2000/svg">
<path d="M0 50C0 36.7187 5.27346 24.0234 14.6485 14.6484C34.1797 -4.88281 65.8203 -4.88281 85.3515 14.6484L385.352 314.648C394.727 324.023 400 336.719 400 350C400 363.281 394.727 375.977 385.352 385.352L85.3515 685.352C65.8203 704.883 34.1797 704.883 14.6485 685.352C5.27346 675.977 0 663.281 0 650C0 636.719 5.27346 624.023 14.6485 614.648L279.297 350L14.6485 85.3515C5.27346 75.9765 0 63.2812 0 50Z" fill="white"/>
<path d="M188.66 350.536L86 449.146V249.419L188.66 350.536Z" stroke="white" stroke-width="172"/>
</svg>
