<svg width="1440" height="200" viewBox="0 0 1440 211" fill="none" xmlns="http://www.w3.org/2000/svg">
<path d="M0 82.5325L48 98.5325C96 114.532 192 146.532 288 167.832C384 189.532 480 199.532 576 157.232C672 114.532 768 18.5325 864 2.53249C960 -13.4675 1056 50.5325 1152 77.2325C1248 103.532 1344 93.5325 1392 87.8325L1440 82.5325V210.532H1392C1344 210.532 1248 210.532 1152 210.532C1056 210.532 960 210.532 864 210.532C768 210.532 672 210.532 576 210.532C480 210.532 384 210.532 288 210.532C192 210.532 96 210.532 48 210.532H0V82.5325Z" fill="#151516"/>
</svg>
