<svg width="25" height="25" viewBox="0 0 30 30" fill="none" xmlns="http://www.w3.org/2000/svg">
<g clip-path="url(#clip0_173_18)">
<path d="M26.85 5.925H22.4063V2.9625C22.4063 2.1768 22.0941 1.42327 21.5386 0.867696C20.983 0.31212 20.2295 0 19.4438 0H10.5563C9.77055 0 9.01702 0.31212 8.46145 0.867696C7.90587 1.42327 7.59375 2.1768 7.59375 2.9625V5.925H3.15C2.3643 5.925 1.61077 6.23712 1.0552 6.7927C0.49962 7.34827 0.1875 8.1018 0.1875 8.8875V26.6625C0.1875 27.4482 0.49962 28.2017 1.0552 28.7573C1.61077 29.3129 2.3643 29.625 3.15 29.625H26.85C27.6357 29.625 28.3892 29.3129 28.9448 28.7573C29.5004 28.2017 29.8125 27.4482 29.8125 26.6625V8.8875C29.8125 8.1018 29.5004 7.34827 28.9448 6.7927C28.3892 6.23712 27.6357 5.925 26.85 5.925ZM10.5563 2.9625H19.4438V5.925H10.5563V2.9625Z" fill="#D8D8D8"/>
</g>
<defs>
<clipPath id="clip0_173_18">
<rect width="30" height="30" fill="white"/>
</clipPath>
</defs>
</svg>
