<svg width="750" height="750" viewBox="0 0 750 750" fill="none" xmlns="http://www.w3.org/2000/svg">
<path d="M625 375C625 512.5 512.5 625 375 625C237.5 625 125 512.5 125 375C125 237.5 237.5 125 375 125C512.5 125 625 237.5 625 375Z" fill="#FFC10A"/>
<path d="M375 0C360 0 350 10 350 25V75C350 90 360 100 375 100C390 100 400 90 400 75V25C400 10 390 0 375 0Z" fill="#A67D06"/>
<path d="M375 650C360 650 350 660 350 675V725C350 740 360 750 375 750C390 750 400 740 400 725V675C400 660 390 650 375 650Z" fill="#A67D06"/>
<path d="M725 350H675C660 350 650 360 650 375C650 390 660 400 675 400H725C740 400 750 390 750 375C750 360 740 350 725 350Z" fill="#A67D06"/>
<path d="M75 350H25C10 350 0 360 0 375C0 390 10 400 25 400H75C90 400 100 390 100 375C100 360 90 350 75 350Z" fill="#A67D06"/>
<path d="M605 110L570 145C560 155 560 170 570 180C575 185 582.5 187.5 587.5 187.5C592.5 187.5 600 185 605 180L640 145C650 135 650 120 640 110C630 100 615 100 605 110Z" fill="#A67D06"/>
<path d="M145 570L110 605C100 615 100 630 110 640C115 645 122.5 647.5 127.5 647.5C132.5 647.5 140 645 145 640L180 605C190 595 190 580 180 570C170 560 155 560 145 570Z" fill="#A67D06"/>
<path d="M145 110C135 100 120 100 110 110C100 120 100 135 110 145L145 180C150 185 157.5 187.5 162.5 187.5C167.5 187.5 175 185 180 180C190 170 190 155 180 145L145 110Z" fill="#A67D06"/>
<path d="M605 570C595 560 580 560 570 570C560 580 560 595 570 605L605 640C610 645 617.5 647.5 622.5 647.5C627.5 647.5 635 645 640 640C650 630 650 615 640 605L605 570Z" fill="#A67D06"/>
</svg>
