<svg width="71" height="70" viewBox="0 0 71 70" fill="none" xmlns="http://www.w3.org/2000/svg">
<path d="M9.5127 31.7302C9.5127 20.858 9.51269 15.4219 12.8903 12.0443C16.2679 8.66669 21.704 8.66669 32.5762 8.66669H38.3421C49.2143 8.66669 54.6506 8.66669 58.028 12.0443C61.4056 15.4219 61.4056 20.858 61.4056 31.7302V37.4961C61.4056 48.3683 61.4056 53.8046 58.028 57.182C54.6506 60.5596 49.2143 60.5596 38.3421 60.5596H32.5762C21.704 60.5596 16.2679 60.5596 12.8903 57.182C9.51269 53.8046 9.5127 48.3683 9.5127 37.4961V31.7302Z" stroke="#D8D8D8" stroke-width="5.3848"/>
<path d="M48.4328 25.9642C50.8211 25.9642 52.7572 24.0281 52.7572 21.6397C52.7572 19.2514 50.8211 17.3153 48.4328 17.3153C46.0445 17.3153 44.1084 19.2514 44.1084 21.6397C44.1084 24.0281 46.0445 25.9642 48.4328 25.9642Z" fill="#D8D8D8"/>
<path d="M35.4555 43.261C40.2321 43.261 44.1043 39.3888 44.1043 34.6122C44.1043 29.8356 40.2321 25.9634 35.4555 25.9634C30.6789 25.9634 26.8066 29.8356 26.8066 34.6122C26.8066 39.3888 30.6789 43.261 35.4555 43.261Z" stroke="#D8D8D8" stroke-width="5.3848"/>
</svg>
