<svg width="300" height="300" viewBox="0 0 300 300" fill="none" xmlns="http://www.w3.org/2000/svg">
<g clip-path="url(#clip0_195_5)">
<rect width="300" height="300" fill="white"/>
<path d="M37.4389 109.184V98.3767C37.4389 98.151 37.517 97.9572 37.6733 97.7951C37.8295 97.6331 38.0205 97.5521 38.2462 97.5521H44.8695C48.3706 97.5521 50.1212 99.1667 50.1212 102.396C50.1212 105.619 48.3706 107.231 44.8695 107.231H40.7115V109.184C40.7115 109.41 40.6305 109.604 40.4684 109.766C40.3122 109.922 40.1212 110 39.8955 110H38.2636C38.0379 110 37.844 109.922 37.682 109.766C37.5199 109.604 37.4389 109.41 37.4389 109.184ZM40.7115 104.774H43.8799C44.8521 104.774 45.59 104.612 46.0934 104.288C46.5969 103.958 46.8486 103.328 46.8486 102.396C46.8486 101.458 46.5969 100.828 46.0934 100.503C45.59 100.174 44.8521 100.009 43.8799 100.009H40.7115V104.774ZM58.1334 102.691L56.7966 102.639C56.0153 102.639 55.2688 103.067 54.557 103.924V109.47C54.557 109.627 54.5049 109.754 54.4007 109.852C54.3023 109.951 54.1779 110 54.0275 110H52.083C51.9268 110 51.7995 109.951 51.7011 109.852C51.6027 109.754 51.5535 109.627 51.5535 109.47V101.024C51.5535 100.868 51.6027 100.741 51.7011 100.642C51.8052 100.538 51.9326 100.486 52.083 100.486H54.0275C54.1837 100.486 54.311 100.538 54.4094 100.642C54.5078 100.741 54.557 100.868 54.557 101.024V101.571C55.1473 101.143 55.7144 100.828 56.2584 100.625C56.8081 100.417 57.5257 100.313 58.4111 100.313C58.5674 100.313 58.6947 100.365 58.7931 100.469C58.8973 100.567 58.9493 100.692 58.9493 100.842V102.161C58.9493 102.318 58.8973 102.445 58.7931 102.543C58.6947 102.642 58.5674 102.691 58.4111 102.691H58.1334ZM60.1993 98.6719V98.3767C60.1993 98.07 60.2861 97.827 60.4598 97.6476C60.6392 97.4682 60.8851 97.3785 61.1976 97.3785H62.274C62.5807 97.3785 62.8238 97.4682 63.0032 97.6476C63.1826 97.8212 63.2723 98.0642 63.2723 98.3767V98.6719C63.2723 98.9786 63.1826 99.2216 63.0032 99.401C62.8295 99.5804 62.5865 99.6701 62.274 99.6701H61.1976C60.8909 99.6701 60.6478 99.5804 60.4684 99.401C60.289 99.2216 60.1993 98.9786 60.1993 98.6719ZM60.2341 109.47V101.233C60.2341 101.076 60.2833 100.949 60.3816 100.851C60.4858 100.752 60.6131 100.703 60.7636 100.703H62.708C62.8643 100.703 62.9916 100.755 63.09 100.859C63.1883 100.958 63.2375 101.082 63.2375 101.233V109.47C63.2375 109.627 63.1854 109.754 63.0813 109.852C62.9829 109.951 62.8585 110 62.708 110H60.7636C60.6073 110 60.48 109.951 60.3816 109.852C60.2833 109.754 60.2341 109.627 60.2341 109.47ZM65.4077 109.47V101.024C65.4077 100.868 65.4569 100.741 65.5552 100.642C65.6594 100.538 65.7867 100.486 65.9372 100.486H67.8816C68.0321 100.486 68.1565 100.538 68.2549 100.642C68.3591 100.741 68.4111 100.868 68.4111 101.024V101.571C69.4065 100.732 70.4655 100.313 71.5882 100.313C72.7167 100.313 73.6339 100.657 74.34 101.345C75.046 102.028 75.399 103.076 75.399 104.488V109.47C75.399 109.621 75.3469 109.748 75.2427 109.852C75.1444 109.951 75.017 110 74.8608 110H72.925C72.7746 110 72.6473 109.951 72.5431 109.852C72.4447 109.748 72.3955 109.621 72.3955 109.47V104.488C72.3955 103.105 71.8429 102.413 70.7375 102.413C70.0142 102.413 69.2387 102.827 68.4111 103.655V109.47C68.4111 109.621 68.3591 109.748 68.2549 109.852C68.1565 109.951 68.0321 110 67.8816 110H65.9372C65.7867 110 65.6594 109.951 65.5552 109.852C65.4569 109.748 65.4077 109.621 65.4077 109.47ZM82.1438 110.174C80.5234 110.174 79.2618 109.757 78.3591 108.924C77.4563 108.09 77.0049 106.866 77.0049 105.252C77.0049 103.631 77.4534 102.405 78.3504 101.571C79.2474 100.732 80.4945 100.313 82.0917 100.313C83.6947 100.313 84.9244 100.567 85.7809 101.076C86.6432 101.586 87.0743 102.338 87.0743 103.333C87.0743 103.49 87.0222 103.617 86.9181 103.715C86.8197 103.814 86.6924 103.863 86.5361 103.863H85.2427C84.8492 103.863 84.5165 103.652 84.2445 103.229C83.903 102.685 83.2983 102.413 82.4302 102.413C81.568 102.413 80.9632 102.636 80.616 103.082C80.2746 103.521 80.1038 104.242 80.1038 105.243C80.1038 106.244 80.2803 106.968 80.6334 107.413C80.9922 107.859 81.6114 108.082 82.491 108.082C83.3764 108.082 83.9898 107.81 84.3313 107.266C84.6033 106.837 84.936 106.623 85.3295 106.623H86.6229C86.7792 106.623 86.9065 106.675 87.0049 106.78C87.1091 106.878 87.1611 107.002 87.1611 107.153C87.1611 108.148 86.73 108.9 85.8677 109.41C85.0113 109.919 83.7699 110.174 82.1438 110.174ZM88.5848 98.6719V98.3767C88.5848 98.07 88.6716 97.827 88.8452 97.6476C89.0246 97.4682 89.2705 97.3785 89.583 97.3785H90.6594C90.9661 97.3785 91.2092 97.4682 91.3886 97.6476C91.568 97.8212 91.6577 98.0642 91.6577 98.3767V98.6719C91.6577 98.9786 91.568 99.2216 91.3886 99.401C91.215 99.5804 90.9719 99.6701 90.6594 99.6701H89.583C89.2763 99.6701 89.0332 99.5804 88.8538 99.401C88.6745 99.2216 88.5848 98.9786 88.5848 98.6719ZM88.6195 109.47V101.233C88.6195 101.076 88.6687 100.949 88.767 100.851C88.8712 100.752 88.9985 100.703 89.149 100.703H91.0934C91.2497 100.703 91.377 100.755 91.4754 100.859C91.5738 100.958 91.6229 101.082 91.6229 101.233V109.47C91.6229 109.627 91.5709 109.754 91.4667 109.852C91.3683 109.951 91.2439 110 91.0934 110H89.149C88.9927 110 88.8654 109.951 88.767 109.852C88.6687 109.754 88.6195 109.627 88.6195 109.47ZM93.7931 112.396V101.024C93.7931 100.868 93.8423 100.741 93.9407 100.642C94.0448 100.538 94.1721 100.486 94.3226 100.486H95.9979C96.1484 100.486 96.2728 100.538 96.3712 100.642C96.4754 100.741 96.5275 100.868 96.5275 101.024V101.285C97.4418 100.637 98.5037 100.313 99.7132 100.313C100.923 100.313 101.933 100.741 102.743 101.597C103.553 102.448 103.958 103.669 103.958 105.26C103.958 106.846 103.538 108.061 102.699 108.906C101.86 109.751 100.729 110.174 99.3052 110.174C98.5703 110.174 97.7341 110.026 96.7966 109.731V112.396C96.7966 112.552 96.7445 112.679 96.6403 112.778C96.5419 112.882 96.4175 112.934 96.267 112.934H94.3226C94.1721 112.934 94.0448 112.882 93.9407 112.778C93.8423 112.679 93.7931 112.552 93.7931 112.396ZM96.7966 107.726C97.5431 107.963 98.171 108.082 98.6802 108.082C99.4731 108.082 100.034 107.856 100.364 107.405C100.7 106.953 100.868 106.233 100.868 105.243C100.868 104.253 100.709 103.536 100.39 103.09C100.078 102.639 99.6062 102.413 98.9754 102.413C98.3504 102.413 97.6241 102.674 96.7966 103.194V107.726ZM106.172 109.375C105.408 108.843 105.026 108.09 105.026 107.118C105.026 106.146 105.408 105.399 106.172 104.878C106.941 104.358 107.931 104.097 109.14 104.097H112.014C112.014 103.42 111.872 102.948 111.588 102.682C111.305 102.416 110.807 102.283 110.095 102.283C109.389 102.283 108.891 102.459 108.602 102.813C108.319 103.16 107.968 103.333 107.552 103.333H106.258C106.102 103.333 105.972 103.284 105.868 103.186C105.769 103.082 105.72 102.954 105.72 102.804C105.72 101.143 107.297 100.313 110.451 100.313C111.828 100.313 112.934 100.622 113.767 101.241C114.6 101.855 115.017 102.807 115.017 104.097V109.47C115.017 109.627 114.968 109.754 114.869 109.852C114.771 109.951 114.644 110 114.488 110H112.812C112.656 110 112.529 109.951 112.43 109.852C112.332 109.748 112.283 109.621 112.283 109.47V109.201C111.368 109.855 110.312 110.179 109.114 110.174C107.922 110.174 106.941 109.907 106.172 109.375ZM109.349 106.068C108.944 106.068 108.622 106.166 108.385 106.363C108.154 106.56 108.038 106.814 108.038 107.127C108.038 107.439 108.159 107.697 108.402 107.899C108.646 108.102 108.99 108.203 109.435 108.203C110.327 108.203 111.186 107.943 112.014 107.422V106.068H109.349ZM117.161 109.47V98.0903C117.161 97.934 117.21 97.8067 117.309 97.7083C117.413 97.6042 117.54 97.5521 117.691 97.5521H119.635C119.786 97.5521 119.91 97.6042 120.008 97.7083C120.113 97.8067 120.165 97.934 120.165 98.0903V109.47C120.165 109.621 120.113 109.748 120.008 109.852C119.91 109.951 119.786 110 119.635 110H117.691C117.54 110 117.413 109.951 117.309 109.852C117.21 109.748 117.161 109.621 117.161 109.47ZM122.3 109.47V101.024C122.3 100.868 122.349 100.741 122.448 100.642C122.552 100.538 122.679 100.486 122.83 100.486H124.774C124.93 100.486 125.058 100.538 125.156 100.642C125.254 100.741 125.303 100.868 125.303 101.024V101.571C125.72 101.166 126.128 100.856 126.527 100.642C126.933 100.422 127.419 100.313 127.986 100.313C129.334 100.313 130.356 100.868 131.05 101.979C132.126 100.862 133.229 100.307 134.357 100.313C135.492 100.313 136.386 100.654 137.04 101.337C137.699 102.014 138.029 103.064 138.029 104.488V109.47C138.029 109.627 137.98 109.754 137.882 109.852C137.783 109.951 137.656 110 137.5 110H135.564C135.408 110 135.277 109.951 135.173 109.852C135.075 109.748 135.026 109.621 135.026 109.47V104.488C135.026 103.099 134.522 102.407 133.515 102.413C132.902 102.413 132.268 102.856 131.614 103.741C131.649 103.99 131.666 104.239 131.666 104.488V109.47C131.666 109.627 131.614 109.754 131.51 109.852C131.412 109.951 131.287 110 131.137 110H129.201C129.045 110 128.915 109.951 128.81 109.852C128.712 109.748 128.663 109.621 128.663 109.47V104.488C128.663 103.099 128.159 102.407 127.152 102.413C126.51 102.413 125.894 102.827 125.303 103.655V109.47C125.303 109.627 125.251 109.754 125.147 109.852C125.049 109.951 124.924 110 124.774 110H122.83C122.673 110 122.546 109.951 122.448 109.852C122.349 109.754 122.3 109.627 122.3 109.47ZM140.963 108.906C140.072 108.061 139.626 106.846 139.626 105.26C139.626 103.669 140.075 102.448 140.972 101.597C141.869 100.741 143.113 100.313 144.705 100.313C146.296 100.313 147.537 100.729 148.428 101.563C149.32 102.39 149.765 103.579 149.765 105.13V105.625C149.765 105.781 149.713 105.911 149.609 106.016C149.511 106.114 149.383 106.163 149.227 106.163H142.691C142.749 106.875 142.951 107.393 143.298 107.717C143.651 108.041 144.213 108.203 144.982 108.203C145.752 108.203 146.279 108.03 146.562 107.682C146.846 107.335 147.196 107.159 147.613 107.153H148.906C149.062 107.153 149.189 107.205 149.288 107.309C149.392 107.407 149.444 107.535 149.444 107.691C149.444 109.352 147.861 110.179 144.696 110.174C143.099 110.174 141.854 109.751 140.963 108.906ZM142.673 104.332H146.71C146.652 102.966 145.981 102.283 144.696 102.283C143.417 102.283 142.743 102.966 142.673 104.332ZM151.363 109.47V101.024C151.363 100.868 151.412 100.741 151.51 100.642C151.614 100.538 151.742 100.486 151.892 100.486H153.836C153.987 100.486 154.111 100.538 154.21 100.642C154.314 100.741 154.366 100.868 154.366 101.024V101.571C155.361 100.732 156.42 100.313 157.543 100.313C158.672 100.313 159.589 100.657 160.295 101.345C161.001 102.028 161.354 103.076 161.354 104.488V109.47C161.354 109.621 161.302 109.748 161.198 109.852C161.099 109.951 160.972 110 160.816 110H158.88C158.729 110 158.602 109.951 158.498 109.852C158.4 109.748 158.35 109.621 158.35 109.47V104.488C158.35 103.105 157.798 102.413 156.692 102.413C155.969 102.413 155.194 102.827 154.366 103.655V109.47C154.366 109.621 154.314 109.748 154.21 109.852C154.111 109.951 153.987 110 153.836 110H151.892C151.742 110 151.614 109.951 151.51 109.852C151.412 109.748 151.363 109.621 151.363 109.47ZM168.029 108.116L169.218 108.012H169.54C169.696 108.012 169.823 108.061 169.922 108.16C170.026 108.258 170.078 108.385 170.078 108.542V109.47C170.078 109.598 170.026 109.714 169.922 109.818C169.823 109.916 169.696 109.977 169.54 110C168.949 110.116 168.18 110.174 167.231 110.174C164.742 110.174 163.498 108.872 163.498 106.267V98.0903C163.498 97.934 163.547 97.8067 163.646 97.7083C163.75 97.6042 163.877 97.5521 164.027 97.5521H165.972C166.122 97.5521 166.247 97.6042 166.345 97.7083C166.449 97.8067 166.501 97.934 166.501 98.0903V100.99H168.923C169.074 100.99 169.198 101.039 169.297 101.137C169.401 101.236 169.453 101.363 169.453 101.519V102.552C169.453 102.708 169.401 102.836 169.297 102.934C169.198 103.032 169.074 103.082 168.923 103.082H166.501V106.267C166.501 106.858 166.64 107.315 166.918 107.639C167.196 107.957 167.566 108.116 168.029 108.116ZM172.213 108.906C171.322 108.061 170.876 106.846 170.876 105.26C170.876 103.669 171.325 102.448 172.222 101.597C173.119 100.741 174.363 100.313 175.955 100.313C177.546 100.313 178.787 100.729 179.678 101.563C180.57 102.39 181.015 103.579 181.015 105.13V105.625C181.015 105.781 180.963 105.911 180.859 106.016C180.761 106.114 180.633 106.163 180.477 106.163H173.941C173.999 106.875 174.201 107.393 174.548 107.717C174.901 108.041 175.463 108.203 176.232 108.203C177.002 108.203 177.529 108.03 177.812 107.682C178.096 107.335 178.446 107.159 178.863 107.153H180.156C180.312 107.153 180.439 107.205 180.538 107.309C180.642 107.407 180.694 107.535 180.694 107.691C180.694 109.352 179.111 110.179 175.946 110.174C174.349 110.174 173.104 109.751 172.213 108.906ZM173.923 104.332H177.96C177.902 102.966 177.231 102.283 175.946 102.283C174.667 102.283 173.993 102.966 173.923 104.332ZM184.496 107.188C185.243 107.188 185.616 107.462 185.616 108.012C185.616 108.163 185.575 108.339 185.494 108.542L184.461 111.155C184.34 111.438 184.158 111.675 183.915 111.866C183.672 112.057 183.397 112.153 183.09 112.153H182.751C182.387 112.153 182.155 112.075 182.057 111.918C181.964 111.768 181.918 111.612 181.918 111.45C181.918 111.288 181.93 111.131 181.953 110.981L182.465 108.186C182.517 107.914 182.676 107.679 182.942 107.483C183.209 107.286 183.489 107.188 183.784 107.188H184.496ZM194.435 108.906C193.544 108.061 193.099 106.846 193.099 105.26C193.099 103.669 193.547 102.448 194.444 101.597C195.341 100.741 196.585 100.313 198.177 100.313C199.768 100.313 201.01 100.729 201.901 101.563C202.792 102.39 203.238 103.579 203.238 105.13V105.625C203.238 105.781 203.185 105.911 203.081 106.016C202.983 106.114 202.856 106.163 202.699 106.163H196.163C196.221 106.875 196.423 107.393 196.771 107.717C197.124 108.041 197.685 108.203 198.455 108.203C199.224 108.203 199.751 108.03 200.034 107.682C200.318 107.335 200.668 107.159 201.085 107.153H202.378C202.534 107.153 202.662 107.205 202.76 107.309C202.864 107.407 202.916 107.535 202.916 107.691C202.916 109.352 201.334 110.179 198.168 110.174C196.571 110.174 195.327 109.751 194.435 108.906ZM196.146 104.332H200.182C200.124 102.966 199.453 102.283 198.168 102.283C196.889 102.283 196.215 102.966 196.146 104.332ZM204.297 103.116C204.297 101.247 205.804 100.313 208.819 100.313C211.99 100.313 213.576 101.143 213.576 102.804C213.576 102.954 213.527 103.082 213.428 103.186C213.33 103.284 213.203 103.333 213.047 103.333H211.753C211.336 103.333 210.986 103.16 210.703 102.813C210.419 102.459 209.861 102.283 209.027 102.283C207.882 102.283 207.309 102.561 207.309 103.116C207.309 103.377 207.531 103.594 207.977 103.767C208.428 103.941 208.975 104.094 209.618 104.227C210.266 104.355 210.911 104.52 211.553 104.722C212.196 104.925 212.74 105.249 213.185 105.694C213.637 106.134 213.863 106.693 213.863 107.37C213.863 109.239 212.271 110.174 209.088 110.174C205.905 110.174 204.314 109.346 204.314 107.691C204.314 107.535 204.363 107.407 204.461 107.309C204.566 107.205 204.696 107.153 204.852 107.153H206.146C206.562 107.153 206.912 107.329 207.196 107.682C207.479 108.03 208.038 108.203 208.871 108.203C210.196 108.203 210.859 107.925 210.859 107.37C210.859 107.109 210.633 106.892 210.182 106.719C209.736 106.545 209.189 106.392 208.541 106.259C207.893 106.12 207.248 105.952 206.606 105.755C205.969 105.553 205.425 105.229 204.974 104.783C204.522 104.337 204.297 103.782 204.297 103.116ZM221.71 112.396V101.024C221.71 100.868 221.759 100.741 221.857 100.642C221.961 100.538 222.089 100.486 222.239 100.486H223.915C224.065 100.486 224.189 100.538 224.288 100.642C224.392 100.741 224.444 100.868 224.444 101.024V101.285C225.358 100.637 226.42 100.313 227.63 100.313C228.839 100.313 229.849 100.741 230.659 101.597C231.47 102.448 231.875 103.669 231.875 105.26C231.875 106.846 231.455 108.061 230.616 108.906C229.777 109.751 228.646 110.174 227.222 110.174C226.487 110.174 225.651 110.026 224.713 109.731V112.396C224.713 112.552 224.661 112.679 224.557 112.778C224.459 112.882 224.334 112.934 224.184 112.934H222.239C222.089 112.934 221.961 112.882 221.857 112.778C221.759 112.679 221.71 112.552 221.71 112.396ZM224.713 107.726C225.46 107.963 226.088 108.082 226.597 108.082C227.39 108.082 227.951 107.856 228.281 107.405C228.617 106.953 228.784 106.233 228.784 105.243C228.784 104.253 228.625 103.536 228.307 103.09C227.994 102.639 227.523 102.413 226.892 102.413C226.267 102.413 225.541 102.674 224.713 103.194V107.726ZM234.088 109.375C233.324 108.843 232.942 108.09 232.942 107.118C232.942 106.146 233.324 105.399 234.088 104.878C234.858 104.358 235.847 104.097 237.057 104.097H239.93C239.93 103.42 239.788 102.948 239.505 102.682C239.221 102.416 238.724 102.283 238.012 102.283C237.306 102.283 236.808 102.459 236.519 102.813C236.235 103.16 235.885 103.333 235.468 103.333H234.175C234.019 103.333 233.889 103.284 233.784 103.186C233.686 103.082 233.637 102.954 233.637 102.804C233.637 101.143 235.214 100.313 238.368 100.313C239.745 100.313 240.85 100.622 241.684 101.241C242.517 101.855 242.934 102.807 242.934 104.097V109.47C242.934 109.627 242.885 109.754 242.786 109.852C242.688 109.951 242.56 110 242.404 110H240.729C240.573 110 240.445 109.951 240.347 109.852C240.249 109.748 240.199 109.621 240.199 109.47V109.201C239.285 109.855 238.229 110.179 237.031 110.174C235.839 110.174 234.858 109.907 234.088 109.375ZM237.265 106.068C236.86 106.068 236.539 106.166 236.302 106.363C236.07 106.56 235.955 106.814 235.955 107.127C235.955 107.439 236.076 107.697 236.319 107.899C236.562 108.102 236.907 108.203 237.352 108.203C238.243 108.203 239.103 107.943 239.93 107.422V106.068H237.265ZM251.658 102.691L250.321 102.639C249.54 102.639 248.793 103.067 248.081 103.924V109.47C248.081 109.627 248.029 109.754 247.925 109.852C247.827 109.951 247.702 110 247.552 110H245.607C245.451 110 245.324 109.951 245.225 109.852C245.127 109.754 245.078 109.627 245.078 109.47V101.024C245.078 100.868 245.127 100.741 245.225 100.642C245.33 100.538 245.457 100.486 245.607 100.486H247.552C247.708 100.486 247.835 100.538 247.934 100.642C248.032 100.741 248.081 100.868 248.081 101.024V101.571C248.672 101.143 249.239 100.828 249.783 100.625C250.332 100.417 251.05 100.313 251.935 100.313C252.092 100.313 252.219 100.365 252.317 100.469C252.422 100.567 252.474 100.692 252.474 100.842V102.161C252.474 102.318 252.422 102.445 252.317 102.543C252.219 102.642 252.092 102.691 251.935 102.691H251.658ZM254.158 109.375C253.394 108.843 253.012 108.09 253.012 107.118C253.012 106.146 253.394 105.399 254.158 104.878C254.927 104.358 255.917 104.097 257.126 104.097H260C260 103.42 259.858 102.948 259.574 102.682C259.291 102.416 258.793 102.283 258.081 102.283C257.375 102.283 256.878 102.459 256.588 102.813C256.305 103.16 255.955 103.333 255.538 103.333H254.244C254.088 103.333 253.958 103.284 253.854 103.186C253.755 103.082 253.706 102.954 253.706 102.804C253.706 101.143 255.283 100.313 258.437 100.313C259.814 100.313 260.92 100.622 261.753 101.241C262.586 101.855 263.003 102.807 263.003 104.097V109.47C263.003 109.627 262.954 109.754 262.856 109.852C262.757 109.951 262.63 110 262.474 110H260.798C260.642 110 260.515 109.951 260.416 109.852C260.318 109.748 260.269 109.621 260.269 109.47V109.201C259.354 109.855 258.298 110.179 257.1 110.174C255.908 110.174 254.927 109.907 254.158 109.375ZM257.335 106.068C256.93 106.068 256.608 106.166 256.371 106.363C256.14 106.56 256.024 106.814 256.024 107.127C256.024 107.439 256.146 107.697 256.389 107.899C256.632 108.102 256.976 108.203 257.422 108.203C258.313 108.203 259.172 107.943 260 107.422V106.068H257.335ZM59.4441 132.47V124.024C59.4441 123.868 59.4933 123.741 59.5917 123.642C59.6959 123.538 59.8232 123.486 59.9736 123.486H61.9181C62.0743 123.486 62.2017 123.538 62.3 123.642C62.3984 123.741 62.4476 123.868 62.4476 124.024V124.571C62.8643 124.166 63.2723 123.856 63.6716 123.642C64.0767 123.422 64.5628 123.313 65.1299 123.313C66.4783 123.313 67.4997 123.868 68.1941 124.979C69.2705 123.862 70.3729 123.307 71.5014 123.313C72.6357 123.313 73.5298 123.654 74.1837 124.337C74.8434 125.014 75.1733 126.064 75.1733 127.488V132.47C75.1733 132.627 75.1241 132.754 75.0257 132.852C74.9273 132.951 74.8 133 74.6438 133H72.708C72.5518 133 72.4216 132.951 72.3174 132.852C72.219 132.748 72.1698 132.621 72.1698 132.47V127.488C72.1698 126.099 71.6663 125.407 70.6594 125.413C70.046 125.413 69.4123 125.856 68.7584 126.741C68.7931 126.99 68.8104 127.239 68.8104 127.488V132.47C68.8104 132.627 68.7584 132.754 68.6542 132.852C68.5558 132.951 68.4314 133 68.2809 133H66.3452C66.1889 133 66.0587 132.951 65.9545 132.852C65.8562 132.748 65.807 132.621 65.807 132.47V127.488C65.807 126.099 65.3035 125.407 64.2966 125.413C63.6542 125.413 63.0379 125.827 62.4476 126.655V132.47C62.4476 132.627 62.3955 132.754 62.2913 132.852C62.193 132.951 62.0685 133 61.9181 133H59.9736C59.8174 133 59.6901 132.951 59.5917 132.852C59.4933 132.754 59.4441 132.627 59.4441 132.47ZM78.1247 131.924C77.2219 131.09 76.7705 129.863 76.7705 128.243C76.7705 126.617 77.2219 125.39 78.1247 124.563C79.0275 123.729 80.3238 123.313 82.0136 123.313C83.7092 123.313 85.0084 123.729 85.9111 124.563C86.8139 125.39 87.2653 126.617 87.2653 128.243C87.2653 129.863 86.8139 131.09 85.9111 131.924C85.0084 132.757 83.7092 133.174 82.0136 133.174C80.3238 133.174 79.0275 132.757 78.1247 131.924ZM80.3209 125.986C79.9621 126.455 79.7827 127.204 79.7827 128.234C79.7827 129.264 79.9621 130.017 80.3209 130.491C80.6797 130.966 81.2439 131.203 82.0136 131.203C82.789 131.203 83.3562 130.966 83.715 130.491C84.0795 130.017 84.2618 129.264 84.2618 128.234C84.2618 127.204 84.0795 126.455 83.715 125.986C83.3562 125.517 82.789 125.283 82.0136 125.283C81.2439 125.283 80.6797 125.517 80.3209 125.986ZM88.333 126.116C88.333 124.247 89.8405 123.313 92.8556 123.313C96.0269 123.313 97.6125 124.143 97.6125 125.804C97.6125 125.954 97.5633 126.082 97.465 126.186C97.3666 126.284 97.2393 126.333 97.083 126.333H95.7896C95.3729 126.333 95.0228 126.16 94.7393 125.813C94.4557 125.459 93.8972 125.283 93.0639 125.283C91.9181 125.283 91.3452 125.561 91.3452 126.116C91.3452 126.377 91.568 126.594 92.0136 126.767C92.465 126.941 93.0118 127.094 93.6542 127.227C94.3023 127.355 94.9476 127.52 95.59 127.722C96.2323 127.925 96.7763 128.249 97.2219 128.694C97.6733 129.134 97.899 129.693 97.899 130.37C97.899 132.239 96.3075 133.174 93.1247 133.174C89.9418 133.174 88.3504 132.346 88.3504 130.691C88.3504 130.535 88.3996 130.407 88.4979 130.309C88.6021 130.205 88.7323 130.153 88.8886 130.153H90.182C90.5986 130.153 90.9488 130.329 91.2323 130.682C91.5159 131.03 92.0743 131.203 92.9077 131.203C94.2329 131.203 94.8955 130.925 94.8955 130.37C94.8955 130.109 94.6698 129.892 94.2184 129.719C93.7728 129.545 93.226 129.392 92.5778 129.259C91.9297 129.12 91.2844 128.952 90.642 128.755C90.0055 128.553 89.4615 128.229 89.0101 127.783C88.5587 127.337 88.333 126.782 88.333 126.116ZM104.045 131.116L105.234 131.012H105.555C105.711 131.012 105.839 131.061 105.937 131.16C106.041 131.258 106.093 131.385 106.093 131.542V132.47C106.093 132.598 106.041 132.714 105.937 132.818C105.839 132.916 105.711 132.977 105.555 133C104.965 133.116 104.195 133.174 103.246 133.174C100.758 133.174 99.5136 131.872 99.5136 129.267V121.09C99.5136 120.934 99.5628 120.807 99.6611 120.708C99.7653 120.604 99.8926 120.552 100.043 120.552H101.988C102.138 120.552 102.262 120.604 102.361 120.708C102.465 120.807 102.517 120.934 102.517 121.09V123.99H104.939C105.089 123.99 105.214 124.039 105.312 124.137C105.416 124.236 105.468 124.363 105.468 124.519V125.552C105.468 125.708 105.416 125.836 105.312 125.934C105.214 126.032 105.089 126.082 104.939 126.082H102.517V129.267C102.517 129.858 102.656 130.315 102.934 130.639C103.211 130.957 103.582 131.116 104.045 131.116ZM114.097 125.691L112.76 125.639C111.979 125.639 111.232 126.067 110.521 126.924V132.47C110.521 132.627 110.468 132.754 110.364 132.852C110.266 132.951 110.141 133 109.991 133H108.047C107.89 133 107.763 132.951 107.665 132.852C107.566 132.754 107.517 132.627 107.517 132.47V124.024C107.517 123.868 107.566 123.741 107.665 123.642C107.769 123.538 107.896 123.486 108.047 123.486H109.991C110.147 123.486 110.275 123.538 110.373 123.642C110.471 123.741 110.521 123.868 110.521 124.024V124.571C111.111 124.143 111.678 123.828 112.222 123.625C112.772 123.417 113.489 123.313 114.375 123.313C114.531 123.313 114.658 123.365 114.757 123.469C114.861 123.567 114.913 123.692 114.913 123.842V125.161C114.913 125.318 114.861 125.445 114.757 125.543C114.658 125.642 114.531 125.691 114.375 125.691H114.097ZM116.597 132.375C115.833 131.843 115.451 131.09 115.451 130.118C115.451 129.146 115.833 128.399 116.597 127.878C117.367 127.358 118.356 127.097 119.566 127.097H122.439C122.439 126.42 122.297 125.948 122.014 125.682C121.73 125.416 121.232 125.283 120.521 125.283C119.814 125.283 119.317 125.459 119.027 125.813C118.744 126.16 118.394 126.333 117.977 126.333H116.684C116.527 126.333 116.397 126.284 116.293 126.186C116.195 126.082 116.146 125.954 116.146 125.804C116.146 124.143 117.722 123.313 120.876 123.313C122.254 123.313 123.359 123.622 124.192 124.241C125.026 124.855 125.442 125.807 125.442 127.097V132.47C125.442 132.627 125.393 132.754 125.295 132.852C125.196 132.951 125.069 133 124.913 133H123.238C123.081 133 122.954 132.951 122.856 132.852C122.757 132.748 122.708 132.621 122.708 132.47V132.201C121.794 132.855 120.738 133.179 119.54 133.174C118.347 133.174 117.367 132.907 116.597 132.375ZM119.774 129.068C119.369 129.068 119.048 129.166 118.81 129.363C118.579 129.56 118.463 129.814 118.463 130.127C118.463 130.439 118.585 130.697 118.828 130.899C119.071 131.102 119.415 131.203 119.861 131.203C120.752 131.203 121.611 130.943 122.439 130.422V129.068H119.774ZM134.166 125.691L132.83 125.639C132.048 125.639 131.302 126.067 130.59 126.924V132.47C130.59 132.627 130.538 132.754 130.434 132.852C130.335 132.951 130.211 133 130.06 133H128.116C127.96 133 127.832 132.951 127.734 132.852C127.636 132.754 127.586 132.627 127.586 132.47V124.024C127.586 123.868 127.636 123.741 127.734 123.642C127.838 123.538 127.966 123.486 128.116 123.486H130.06C130.217 123.486 130.344 123.538 130.442 123.642C130.541 123.741 130.59 123.868 130.59 124.024V124.571C131.18 124.143 131.747 123.828 132.291 123.625C132.841 123.417 133.559 123.313 134.444 123.313C134.6 123.313 134.728 123.365 134.826 123.469C134.93 123.567 134.982 123.692 134.982 123.842V125.161C134.982 125.318 134.93 125.445 134.826 125.543C134.728 125.642 134.6 125.691 134.444 125.691H134.166ZM142.465 128.998V124.024C142.465 123.868 142.514 123.741 142.613 123.642C142.717 123.538 142.844 123.486 142.994 123.486H144.939C145.089 123.486 145.214 123.538 145.312 123.642C145.416 123.741 145.468 123.868 145.468 124.024V128.998C145.468 130.387 146.018 131.082 147.118 131.082C147.841 131.082 148.619 130.665 149.453 129.832V124.024C149.453 123.868 149.502 123.741 149.6 123.642C149.705 123.538 149.832 123.486 149.982 123.486H151.918C152.074 123.486 152.202 123.538 152.3 123.642C152.404 123.741 152.456 123.868 152.456 124.024V132.47C152.456 132.621 152.404 132.748 152.3 132.852C152.202 132.951 152.074 133 151.918 133H149.982C149.832 133 149.705 132.951 149.6 132.852C149.502 132.748 149.453 132.621 149.453 132.47V131.915C148.457 132.754 147.396 133.174 146.267 133.174C145.144 133.174 144.23 132.832 143.524 132.149C142.818 131.461 142.465 130.41 142.465 128.998ZM154.6 132.47V124.024C154.6 123.868 154.65 123.741 154.748 123.642C154.852 123.538 154.979 123.486 155.13 123.486H157.074C157.225 123.486 157.349 123.538 157.448 123.642C157.552 123.741 157.604 123.868 157.604 124.024V124.571C158.599 123.732 159.658 123.313 160.781 123.313C161.909 123.313 162.827 123.657 163.533 124.345C164.239 125.028 164.592 126.076 164.592 127.488V132.47C164.592 132.621 164.54 132.748 164.435 132.852C164.337 132.951 164.21 133 164.053 133H162.118C161.967 133 161.84 132.951 161.736 132.852C161.637 132.748 161.588 132.621 161.588 132.47V127.488C161.588 126.105 161.036 125.413 159.93 125.413C159.207 125.413 158.431 125.827 157.604 126.655V132.47C157.604 132.621 157.552 132.748 157.448 132.852C157.349 132.951 157.225 133 157.074 133H155.13C154.979 133 154.852 132.951 154.748 132.852C154.65 132.748 154.6 132.621 154.6 132.47ZM172.968 132.47V121.09C172.968 120.934 173.018 120.807 173.116 120.708C173.22 120.604 173.347 120.552 173.498 120.552H175.442C175.593 120.552 175.717 120.604 175.816 120.708C175.92 120.807 175.972 120.934 175.972 121.09V132.47C175.972 132.621 175.92 132.748 175.816 132.852C175.717 132.951 175.593 133 175.442 133H173.498C173.347 133 173.22 132.951 173.116 132.852C173.018 132.748 172.968 132.621 172.968 132.47ZM178.715 132.375C177.951 131.843 177.569 131.09 177.569 130.118C177.569 129.146 177.951 128.399 178.715 127.878C179.485 127.358 180.474 127.097 181.684 127.097H184.557C184.557 126.42 184.415 125.948 184.132 125.682C183.848 125.416 183.35 125.283 182.639 125.283C181.933 125.283 181.435 125.459 181.146 125.813C180.862 126.16 180.512 126.333 180.095 126.333H178.802C178.646 126.333 178.515 126.284 178.411 126.186C178.313 126.082 178.264 125.954 178.264 125.804C178.264 124.143 179.841 123.313 182.994 123.313C184.372 123.313 185.477 123.622 186.31 124.241C187.144 124.855 187.56 125.807 187.56 127.097V132.47C187.56 132.627 187.511 132.754 187.413 132.852C187.314 132.951 187.187 133 187.031 133H185.356C185.199 133 185.072 132.951 184.974 132.852C184.875 132.748 184.826 132.621 184.826 132.47V132.201C183.912 132.855 182.856 133.179 181.658 133.174C180.466 133.174 179.485 132.907 178.715 132.375ZM181.892 129.068C181.487 129.068 181.166 129.166 180.929 129.363C180.697 129.56 180.581 129.814 180.581 130.127C180.581 130.439 180.703 130.697 180.946 130.899C181.189 131.102 181.533 131.203 181.979 131.203C182.87 131.203 183.729 130.943 184.557 130.422V129.068H181.892ZM193.42 133.174C192.21 133.174 191.198 132.748 190.382 131.898C189.571 131.047 189.166 129.829 189.166 128.243C189.166 126.652 189.586 125.433 190.425 124.589C191.27 123.738 192.404 123.313 193.828 123.313C194.563 123.313 195.399 123.46 196.336 123.755V121.09C196.336 120.934 196.386 120.807 196.484 120.708C196.588 120.604 196.716 120.552 196.866 120.552H198.802C198.958 120.552 199.085 120.604 199.184 120.708C199.288 120.807 199.34 120.934 199.34 121.09V132.47C199.34 132.621 199.288 132.748 199.184 132.852C199.085 132.951 198.958 133 198.802 133H197.135C196.979 133 196.852 132.951 196.753 132.852C196.655 132.748 196.606 132.621 196.606 132.47V132.201C195.691 132.85 194.629 133.174 193.42 133.174ZM194.453 125.413C193.654 125.413 193.09 125.639 192.76 126.09C192.43 126.536 192.265 127.253 192.265 128.243C192.265 129.233 192.422 129.953 192.734 130.405C193.047 130.856 193.515 131.082 194.14 131.082C194.771 131.082 195.503 130.821 196.336 130.3V125.76C195.59 125.529 194.962 125.413 194.453 125.413ZM202.291 131.924C201.389 131.09 200.937 129.863 200.937 128.243C200.937 126.617 201.389 125.39 202.291 124.563C203.194 123.729 204.49 123.313 206.18 123.313C207.876 123.313 209.175 123.729 210.078 124.563C210.981 125.39 211.432 126.617 211.432 128.243C211.432 129.863 210.981 131.09 210.078 131.924C209.175 132.757 207.876 133.174 206.18 133.174C204.49 133.174 203.194 132.757 202.291 131.924ZM204.488 125.986C204.129 126.455 203.949 127.204 203.949 128.234C203.949 129.264 204.129 130.017 204.488 130.491C204.846 130.966 205.411 131.203 206.18 131.203C206.956 131.203 207.523 130.966 207.882 130.491C208.246 130.017 208.428 129.264 208.428 128.234C208.428 127.204 208.246 126.455 207.882 125.986C207.523 125.517 206.956 125.283 206.18 125.283C205.411 125.283 204.846 125.517 204.488 125.986ZM219.271 132.47V124.024C219.271 123.868 219.32 123.741 219.418 123.642C219.522 123.538 219.65 123.486 219.8 123.486H221.744C221.895 123.486 222.019 123.538 222.118 123.642C222.222 123.741 222.274 123.868 222.274 124.024V124.571C223.269 123.732 224.328 123.313 225.451 123.313C226.58 123.313 227.497 123.657 228.203 124.345C228.909 125.028 229.262 126.076 229.262 127.488V132.47C229.262 132.621 229.21 132.748 229.106 132.852C229.007 132.951 228.88 133 228.724 133H226.788C226.637 133 226.51 132.951 226.406 132.852C226.308 132.748 226.258 132.621 226.258 132.47V127.488C226.258 126.105 225.706 125.413 224.6 125.413C223.877 125.413 223.102 125.827 222.274 126.655V132.47C222.274 132.621 222.222 132.748 222.118 132.852C222.019 132.951 221.895 133 221.744 133H219.8C219.65 133 219.522 132.951 219.418 132.852C219.32 132.748 219.271 132.621 219.271 132.47ZM232.222 131.924C231.319 131.09 230.868 129.863 230.868 128.243C230.868 126.617 231.319 125.39 232.222 124.563C233.125 123.729 234.421 123.313 236.111 123.313C237.806 123.313 239.106 123.729 240.008 124.563C240.911 125.39 241.363 126.617 241.363 128.243C241.363 129.863 240.911 131.09 240.008 131.924C239.106 132.757 237.806 133.174 236.111 133.174C234.421 133.174 233.125 132.757 232.222 131.924ZM234.418 125.986C234.059 126.455 233.88 127.204 233.88 128.234C233.88 129.264 234.059 130.017 234.418 130.491C234.777 130.966 235.341 131.203 236.111 131.203C236.886 131.203 237.453 130.966 237.812 130.491C238.177 130.017 238.359 129.264 238.359 128.234C238.359 127.204 238.177 126.455 237.812 125.986C237.453 125.517 236.886 125.283 236.111 125.283C235.341 125.283 234.777 125.517 234.418 125.986ZM10.6681 158.396V147.024C10.6681 146.868 10.7173 146.741 10.8157 146.642C10.9198 146.538 11.0471 146.486 11.1976 146.486H12.8729C13.0234 146.486 13.1478 146.538 13.2462 146.642C13.3504 146.741 13.4025 146.868 13.4025 147.024V147.285C14.3168 146.637 15.3787 146.313 16.5882 146.313C17.7977 146.313 18.8075 146.741 19.6177 147.597C20.4279 148.448 20.833 149.669 20.833 151.26C20.833 152.846 20.4135 154.061 19.5743 154.906C18.7352 155.751 17.6038 156.174 16.1802 156.174C15.4453 156.174 14.6091 156.026 13.6716 155.731V158.396C13.6716 158.552 13.6195 158.679 13.5153 158.778C13.4169 158.882 13.2925 158.934 13.142 158.934H11.1976C11.0471 158.934 10.9198 158.882 10.8157 158.778C10.7173 158.679 10.6681 158.552 10.6681 158.396ZM13.6716 153.726C14.4181 153.963 15.046 154.082 15.5552 154.082C16.3481 154.082 16.9094 153.856 17.2393 153.405C17.5749 152.953 17.7427 152.233 17.7427 151.243C17.7427 150.253 17.5836 149.536 17.2653 149.09C16.9528 148.639 16.4812 148.413 15.8504 148.413C15.2254 148.413 14.4991 148.674 13.6716 149.194V153.726ZM29.0188 148.691L27.682 148.639C26.9007 148.639 26.1542 149.067 25.4424 149.924V155.47C25.4424 155.627 25.3903 155.754 25.2861 155.852C25.1878 155.951 25.0633 156 24.9129 156H22.9684C22.8122 156 22.6849 155.951 22.5865 155.852C22.4881 155.754 22.4389 155.627 22.4389 155.47V147.024C22.4389 146.868 22.4881 146.741 22.5865 146.642C22.6906 146.538 22.818 146.486 22.9684 146.486H24.9129C25.0691 146.486 25.1964 146.538 25.2948 146.642C25.3932 146.741 25.4424 146.868 25.4424 147.024V147.571C26.0327 147.143 26.5998 146.828 27.1438 146.625C27.6935 146.417 28.4111 146.313 29.2966 146.313C29.4528 146.313 29.5801 146.365 29.6785 146.469C29.7827 146.567 29.8347 146.692 29.8347 146.842V148.161C29.8347 148.318 29.7827 148.445 29.6785 148.543C29.5801 148.642 29.4528 148.691 29.2966 148.691H29.0188ZM31.9007 154.924C30.9979 154.09 30.5466 152.863 30.5466 151.243C30.5466 149.617 30.9979 148.39 31.9007 147.563C32.8035 146.729 34.0998 146.313 35.7896 146.313C37.4852 146.313 38.7844 146.729 39.6872 147.563C40.59 148.39 41.0413 149.617 41.0413 151.243C41.0413 152.863 40.59 154.09 39.6872 154.924C38.7844 155.757 37.4852 156.174 35.7896 156.174C34.0998 156.174 32.8035 155.757 31.9007 154.924ZM34.0969 148.986C33.7381 149.455 33.5587 150.204 33.5587 151.234C33.5587 152.264 33.7381 153.017 34.0969 153.491C34.4557 153.966 35.0199 154.203 35.7896 154.203C36.5651 154.203 37.1322 153.966 37.491 153.491C37.8556 153.017 38.0379 152.264 38.0379 151.234C38.0379 150.204 37.8556 149.455 37.491 148.986C37.1322 148.517 36.5651 148.283 35.7896 148.283C35.0199 148.283 34.4557 148.517 34.0969 148.986ZM49.6177 145.583L48.4198 145.436C47.2682 145.436 46.5188 145.592 46.1716 145.905C45.8243 146.211 45.6507 146.851 45.6507 147.823V147.962H48.7931C48.9493 147.962 49.0766 148.014 49.175 148.118C49.2792 148.216 49.3313 148.344 49.3313 148.5V149.533C49.3313 149.689 49.2792 149.817 49.175 149.915C49.0766 150.013 48.9493 150.063 48.7931 150.063H45.6507V155.47C45.6507 155.627 45.5986 155.754 45.4945 155.852C45.3961 155.951 45.2717 156 45.1212 156H43.1768C43.0205 156 42.8932 155.951 42.7948 155.852C42.6964 155.754 42.6472 155.627 42.6472 155.47V147.823C42.6472 146.208 43.0147 145.065 43.7497 144.394C44.4846 143.717 45.7751 143.378 47.6212 143.378C48.5703 143.378 49.2329 143.413 49.609 143.483C49.9852 143.552 50.2225 143.639 50.3209 143.743C50.4192 143.841 50.4684 143.957 50.4684 144.09V145.045C50.4684 145.201 50.4163 145.332 50.3122 145.436C50.2138 145.534 50.0894 145.583 49.9389 145.583H49.6177ZM51.9007 154.906C51.0095 154.061 50.5639 152.846 50.5639 151.26C50.5639 149.669 51.0124 148.448 51.9094 147.597C52.8064 146.741 54.0506 146.313 55.642 146.313C57.2335 146.313 58.4748 146.729 59.366 147.563C60.2572 148.39 60.7028 149.579 60.7028 151.13V151.625C60.7028 151.781 60.6507 151.911 60.5465 152.016C60.4482 152.114 60.3209 152.163 60.1646 152.163H53.6281C53.686 152.875 53.8886 153.393 54.2358 153.717C54.5888 154.041 55.1501 154.203 55.9198 154.203C56.6895 154.203 57.2161 154.03 57.4997 153.682C57.7832 153.335 58.1334 153.159 58.55 153.153H59.8434C59.9997 153.153 60.127 153.205 60.2254 153.309C60.3295 153.407 60.3816 153.535 60.3816 153.691C60.3816 155.352 58.7989 156.179 55.6334 156.174C54.0361 156.174 52.7919 155.751 51.9007 154.906ZM53.6108 150.332H57.6472C57.5894 148.966 56.9181 148.283 55.6334 148.283C54.3544 148.283 53.6802 148.966 53.6108 150.332ZM61.7618 149.116C61.7618 147.247 63.2694 146.313 66.2844 146.313C69.4557 146.313 71.0413 147.143 71.0413 148.804C71.0413 148.954 70.9922 149.082 70.8938 149.186C70.7954 149.284 70.6681 149.333 70.5118 149.333H69.2184C68.8018 149.333 68.4516 149.16 68.1681 148.813C67.8845 148.459 67.3261 148.283 66.4927 148.283C65.3469 148.283 64.774 148.561 64.774 149.116C64.774 149.377 64.9968 149.594 65.4424 149.767C65.8938 149.941 66.4406 150.094 67.083 150.227C67.7312 150.355 68.3764 150.52 69.0188 150.722C69.6611 150.925 70.2051 151.249 70.6507 151.694C71.1021 152.134 71.3278 152.693 71.3278 153.37C71.3278 155.239 69.7364 156.174 66.5535 156.174C63.3706 156.174 61.7792 155.346 61.7792 153.691C61.7792 153.535 61.8284 153.407 61.9268 153.309C62.0309 153.205 62.1611 153.153 62.3174 153.153H63.6108C64.0275 153.153 64.3776 153.329 64.6611 153.682C64.9447 154.03 65.5031 154.203 66.3365 154.203C67.6617 154.203 68.3243 153.925 68.3243 153.37C68.3243 153.109 68.0986 152.892 67.6472 152.719C67.2016 152.545 66.6548 152.392 66.0066 152.259C65.3585 152.12 64.7132 151.952 64.0709 151.755C63.4343 151.553 62.8903 151.229 62.4389 150.783C61.9875 150.337 61.7618 149.782 61.7618 149.116ZM72.9424 144.672V144.377C72.9424 144.07 73.0292 143.827 73.2028 143.648C73.3822 143.468 73.6281 143.378 73.9406 143.378H75.017C75.3237 143.378 75.5668 143.468 75.7462 143.648C75.9256 143.821 76.0153 144.064 76.0153 144.377V144.672C76.0153 144.979 75.9256 145.222 75.7462 145.401C75.5726 145.58 75.3295 145.67 75.017 145.67H73.9406C73.6339 145.67 73.3909 145.58 73.2115 145.401C73.0321 145.222 72.9424 144.979 72.9424 144.672ZM72.9771 155.47V147.233C72.9771 147.076 73.0263 146.949 73.1247 146.851C73.2288 146.752 73.3562 146.703 73.5066 146.703H75.4511C75.6073 146.703 75.7346 146.755 75.833 146.859C75.9314 146.958 75.9806 147.082 75.9806 147.233V155.47C75.9806 155.627 75.9285 155.754 75.8243 155.852C75.7259 155.951 75.6015 156 75.4511 156H73.5066C73.3504 156 73.2231 155.951 73.1247 155.852C73.0263 155.754 72.9771 155.627 72.9771 155.47ZM78.9667 154.924C78.0639 154.09 77.6125 152.863 77.6125 151.243C77.6125 149.617 78.0639 148.39 78.9667 147.563C79.8695 146.729 81.1658 146.313 82.8556 146.313C84.5512 146.313 85.8504 146.729 86.7531 147.563C87.6559 148.39 88.1073 149.617 88.1073 151.243C88.1073 152.863 87.6559 154.09 86.7531 154.924C85.8504 155.757 84.5512 156.174 82.8556 156.174C81.1658 156.174 79.8695 155.757 78.9667 154.924ZM81.1629 148.986C80.8041 149.455 80.6247 150.204 80.6247 151.234C80.6247 152.264 80.8041 153.017 81.1629 153.491C81.5217 153.966 82.0859 154.203 82.8556 154.203C83.631 154.203 84.1982 153.966 84.557 153.491C84.9215 153.017 85.1038 152.264 85.1038 151.234C85.1038 150.204 84.9215 149.455 84.557 148.986C84.1982 148.517 83.631 148.283 82.8556 148.283C82.0859 148.283 81.5217 148.517 81.1629 148.986ZM89.7132 155.47V147.024C89.7132 146.868 89.7624 146.741 89.8608 146.642C89.965 146.538 90.0923 146.486 90.2427 146.486H92.1872C92.3376 146.486 92.4621 146.538 92.5604 146.642C92.6646 146.741 92.7167 146.868 92.7167 147.024V147.571C93.7121 146.732 94.7711 146.313 95.8938 146.313C97.0222 146.313 97.9395 146.657 98.6455 147.345C99.3515 148.028 99.7045 149.076 99.7045 150.488V155.47C99.7045 155.621 99.6525 155.748 99.5483 155.852C99.4499 155.951 99.3226 156 99.1663 156H97.2306C97.0801 156 96.9528 155.951 96.8486 155.852C96.7503 155.748 96.7011 155.621 96.7011 155.47V150.488C96.7011 149.105 96.1484 148.413 95.0431 148.413C94.3197 148.413 93.5442 148.827 92.7167 149.655V155.47C92.7167 155.621 92.6646 155.748 92.5604 155.852C92.4621 155.951 92.3376 156 92.1872 156H90.2427C90.0923 156 89.965 155.951 89.8608 155.852C89.7624 155.748 89.7132 155.621 89.7132 155.47ZM102.456 155.375C101.692 154.843 101.31 154.09 101.31 153.118C101.31 152.146 101.692 151.399 102.456 150.878C103.226 150.358 104.216 150.097 105.425 150.097H108.298C108.298 149.42 108.157 148.948 107.873 148.682C107.589 148.416 107.092 148.283 106.38 148.283C105.674 148.283 105.176 148.459 104.887 148.813C104.603 149.16 104.253 149.333 103.836 149.333H102.543C102.387 149.333 102.257 149.284 102.152 149.186C102.054 149.082 102.005 148.954 102.005 148.804C102.005 147.143 103.582 146.313 106.736 146.313C108.113 146.313 109.218 146.622 110.052 147.241C110.885 147.855 111.302 148.807 111.302 150.097V155.47C111.302 155.627 111.253 155.754 111.154 155.852C111.056 155.951 110.928 156 110.772 156H109.097C108.941 156 108.813 155.951 108.715 155.852C108.617 155.748 108.567 155.621 108.567 155.47V155.201C107.653 155.855 106.597 156.179 105.399 156.174C104.207 156.174 103.226 155.907 102.456 155.375ZM105.633 152.068C105.228 152.068 104.907 152.166 104.67 152.363C104.438 152.56 104.323 152.814 104.323 153.127C104.323 153.439 104.444 153.697 104.687 153.899C104.93 154.102 105.275 154.203 105.72 154.203C106.611 154.203 107.471 153.943 108.298 153.422V152.068H105.633ZM113.446 155.47V144.09C113.446 143.934 113.495 143.807 113.593 143.708C113.698 143.604 113.825 143.552 113.975 143.552H115.92C116.07 143.552 116.195 143.604 116.293 143.708C116.397 143.807 116.449 143.934 116.449 144.09V155.47C116.449 155.621 116.397 155.748 116.293 155.852C116.195 155.951 116.07 156 115.92 156H113.975C113.825 156 113.698 155.951 113.593 155.852C113.495 155.748 113.446 155.621 113.446 155.47ZM128.533 156.174C127.323 156.174 126.31 155.748 125.494 154.898C124.684 154.047 124.279 152.829 124.279 151.243C124.279 149.652 124.699 148.433 125.538 147.589C126.383 146.738 127.517 146.313 128.941 146.313C129.676 146.313 130.512 146.46 131.449 146.755V144.09C131.449 143.934 131.499 143.807 131.597 143.708C131.701 143.604 131.828 143.552 131.979 143.552H133.915C134.071 143.552 134.198 143.604 134.297 143.708C134.401 143.807 134.453 143.934 134.453 144.09V155.47C134.453 155.621 134.401 155.748 134.297 155.852C134.198 155.951 134.071 156 133.915 156H132.248C132.092 156 131.964 155.951 131.866 155.852C131.768 155.748 131.718 155.621 131.718 155.47V155.201C130.804 155.85 129.742 156.174 128.533 156.174ZM129.566 148.413C128.767 148.413 128.203 148.639 127.873 149.09C127.543 149.536 127.378 150.253 127.378 151.243C127.378 152.233 127.534 152.953 127.847 153.405C128.159 153.856 128.628 154.082 129.253 154.082C129.884 154.082 130.616 153.821 131.449 153.3V148.76C130.703 148.529 130.075 148.413 129.566 148.413ZM137.387 154.906C136.496 154.061 136.05 152.846 136.05 151.26C136.05 149.669 136.499 148.448 137.396 147.597C138.292 146.741 139.537 146.313 141.128 146.313C142.72 146.313 143.961 146.729 144.852 147.563C145.743 148.39 146.189 149.579 146.189 151.13V151.625C146.189 151.781 146.137 151.911 146.033 152.016C145.934 152.114 145.807 152.163 145.651 152.163H139.114C139.172 152.875 139.375 153.393 139.722 153.717C140.075 154.041 140.636 154.203 141.406 154.203C142.176 154.203 142.702 154.03 142.986 153.682C143.269 153.335 143.619 153.159 144.036 153.153H145.33C145.486 153.153 145.613 153.205 145.711 153.309C145.816 153.407 145.868 153.535 145.868 153.691C145.868 155.352 144.285 156.179 141.119 156.174C139.522 156.174 138.278 155.751 137.387 154.906ZM139.097 150.332H143.133C143.075 148.966 142.404 148.283 141.119 148.283C139.841 148.283 139.166 148.966 139.097 150.332ZM154.019 155.47V147.024C154.019 146.868 154.068 146.741 154.166 146.642C154.271 146.538 154.398 146.486 154.548 146.486H156.493C156.649 146.486 156.776 146.538 156.875 146.642C156.973 146.741 157.022 146.868 157.022 147.024V147.571C157.439 147.166 157.847 146.856 158.246 146.642C158.651 146.422 159.137 146.313 159.705 146.313C161.053 146.313 162.074 146.868 162.769 147.979C163.845 146.862 164.948 146.307 166.076 146.313C167.21 146.313 168.104 146.654 168.758 147.337C169.418 148.014 169.748 149.064 169.748 150.488V155.47C169.748 155.627 169.699 155.754 169.6 155.852C169.502 155.951 169.375 156 169.218 156H167.283C167.126 156 166.996 155.951 166.892 155.852C166.794 155.748 166.744 155.621 166.744 155.47V150.488C166.744 149.099 166.241 148.407 165.234 148.413C164.621 148.413 163.987 148.856 163.333 149.741C163.368 149.99 163.385 150.239 163.385 150.488V155.47C163.385 155.627 163.333 155.754 163.229 155.852C163.13 155.951 163.006 156 162.856 156H160.92C160.764 156 160.633 155.951 160.529 155.852C160.431 155.748 160.382 155.621 160.382 155.47V150.488C160.382 149.099 159.878 148.407 158.871 148.413C158.229 148.413 157.613 148.827 157.022 149.655V155.47C157.022 155.627 156.97 155.754 156.866 155.852C156.768 155.951 156.643 156 156.493 156H154.548C154.392 156 154.265 155.951 154.166 155.852C154.068 155.754 154.019 155.627 154.019 155.47ZM171.883 155.47V147.233C171.883 146.88 172.06 146.703 172.413 146.703H174.357C174.71 146.703 174.887 146.88 174.887 147.233V155.47C174.887 155.823 174.71 156 174.357 156H172.413C172.06 156 171.883 155.823 171.883 155.47ZM172.647 144.602L173.073 142.97C173.298 142.305 173.677 141.972 174.21 141.972H174.991C175.373 141.972 175.622 142.091 175.738 142.328C175.784 142.421 175.807 142.536 175.807 142.675C175.807 142.814 175.749 142.97 175.633 143.144L174.687 144.785C174.369 145.329 174.016 145.601 173.628 145.601H173.211C172.789 145.601 172.578 145.41 172.578 145.028C172.578 144.912 172.601 144.77 172.647 144.602ZM178.941 153.188C179.687 153.188 180.06 153.462 180.06 154.012C180.06 154.163 180.02 154.339 179.939 154.542L178.906 157.155C178.784 157.438 178.602 157.675 178.359 157.866C178.116 158.057 177.841 158.153 177.534 158.153H177.196C176.831 158.153 176.6 158.075 176.501 157.918C176.409 157.768 176.363 157.612 176.363 157.45C176.363 157.288 176.374 157.131 176.397 156.981L176.909 154.186C176.961 153.914 177.121 153.679 177.387 153.483C177.653 153.286 177.934 153.188 178.229 153.188H178.941ZM188.88 154.906C187.989 154.061 187.543 152.846 187.543 151.26C187.543 149.669 187.992 148.448 188.889 147.597C189.786 146.741 191.03 146.313 192.621 146.313C194.213 146.313 195.454 146.729 196.345 147.563C197.236 148.39 197.682 149.579 197.682 151.13V151.625C197.682 151.781 197.63 151.911 197.526 152.016C197.427 152.114 197.3 152.163 197.144 152.163H190.607C190.665 152.875 190.868 153.393 191.215 153.717C191.568 154.041 192.129 154.203 192.899 154.203C193.669 154.203 194.195 154.03 194.479 153.682C194.762 153.335 195.113 153.159 195.529 153.153H196.823C196.979 153.153 197.106 153.205 197.205 153.309C197.309 153.407 197.361 153.535 197.361 153.691C197.361 155.352 195.778 156.179 192.613 156.174C191.015 156.174 189.771 155.751 188.88 154.906ZM190.59 150.332H194.626C194.569 148.966 193.897 148.283 192.613 148.283C191.334 148.283 190.659 148.966 190.59 150.332ZM198.741 149.116C198.741 147.247 200.249 146.313 203.264 146.313C206.435 146.313 208.02 147.143 208.02 148.804C208.02 148.954 207.971 149.082 207.873 149.186C207.775 149.284 207.647 149.333 207.491 149.333H206.198C205.781 149.333 205.431 149.16 205.147 148.813C204.864 148.459 204.305 148.283 203.472 148.283C202.326 148.283 201.753 148.561 201.753 149.116C201.753 149.377 201.976 149.594 202.422 149.767C202.873 149.941 203.42 150.094 204.062 150.227C204.71 150.355 205.356 150.52 205.998 150.722C206.64 150.925 207.184 151.249 207.63 151.694C208.081 152.134 208.307 152.693 208.307 153.37C208.307 155.239 206.716 156.174 203.533 156.174C200.35 156.174 198.758 155.346 198.758 153.691C198.758 153.535 198.808 153.407 198.906 153.309C199.01 153.205 199.14 153.153 199.297 153.153H200.59C201.007 153.153 201.357 153.329 201.64 153.682C201.924 154.03 202.482 154.203 203.316 154.203C204.641 154.203 205.303 153.925 205.303 153.37C205.303 153.109 205.078 152.892 204.626 152.719C204.181 152.545 203.634 152.392 202.986 152.259C202.338 152.12 201.692 151.952 201.05 151.755C200.413 151.553 199.869 151.229 199.418 150.783C198.967 150.337 198.741 149.782 198.741 149.116ZM219.869 156.174C218.66 156.174 217.647 155.748 216.831 154.898C216.021 154.047 215.616 152.829 215.616 151.243C215.616 149.652 216.036 148.433 216.875 147.589C217.72 146.738 218.854 146.313 220.277 146.313C221.012 146.313 221.849 146.46 222.786 146.755V144.09C222.786 143.934 222.835 143.807 222.934 143.708C223.038 143.604 223.165 143.552 223.316 143.552H225.251C225.408 143.552 225.535 143.604 225.633 143.708C225.738 143.807 225.79 143.934 225.79 144.09V155.47C225.79 155.621 225.738 155.748 225.633 155.852C225.535 155.951 225.408 156 225.251 156H223.585C223.428 156 223.301 155.951 223.203 155.852C223.104 155.748 223.055 155.621 223.055 155.47V155.201C222.141 155.85 221.079 156.174 219.869 156.174ZM220.902 148.413C220.104 148.413 219.54 148.639 219.21 149.09C218.88 149.536 218.715 150.253 218.715 151.243C218.715 152.233 218.871 152.953 219.184 153.405C219.496 153.856 219.965 154.082 220.59 154.082C221.221 154.082 221.953 153.821 222.786 153.3V148.76C222.04 148.529 221.412 148.413 220.902 148.413ZM228.724 154.906C227.832 154.061 227.387 152.846 227.387 151.26C227.387 149.669 227.835 148.448 228.732 147.597C229.629 146.741 230.874 146.313 232.465 146.313C234.056 146.313 235.298 146.729 236.189 147.563C237.08 148.39 237.526 149.579 237.526 151.13V151.625C237.526 151.781 237.474 151.911 237.369 152.016C237.271 152.114 237.144 152.163 236.988 152.163H230.451C230.509 152.875 230.711 153.393 231.059 153.717C231.412 154.041 231.973 154.203 232.743 154.203C233.512 154.203 234.039 154.03 234.323 153.682C234.606 153.335 234.956 153.159 235.373 153.153H236.666C236.823 153.153 236.95 153.205 237.048 153.309C237.152 153.407 237.205 153.535 237.205 153.691C237.205 155.352 235.622 156.179 232.456 156.174C230.859 156.174 229.615 155.751 228.724 154.906ZM230.434 150.332H234.47C234.412 148.966 233.741 148.283 232.456 148.283C231.177 148.283 230.503 148.966 230.434 150.332ZM243.724 156.174C242.103 156.174 240.842 155.757 239.939 154.924C239.036 154.09 238.585 152.866 238.585 151.252C238.585 149.631 239.033 148.405 239.93 147.571C240.827 146.732 242.074 146.313 243.672 146.313C245.275 146.313 246.504 146.567 247.361 147.076C248.223 147.586 248.654 148.338 248.654 149.333C248.654 149.49 248.602 149.617 248.498 149.715C248.4 149.814 248.272 149.863 248.116 149.863H246.823C246.429 149.863 246.096 149.652 245.824 149.229C245.483 148.685 244.878 148.413 244.01 148.413C243.148 148.413 242.543 148.636 242.196 149.082C241.854 149.521 241.684 150.242 241.684 151.243C241.684 152.244 241.86 152.968 242.213 153.413C242.572 153.859 243.191 154.082 244.071 154.082C244.956 154.082 245.57 153.81 245.911 153.266C246.183 152.837 246.516 152.623 246.909 152.623H248.203C248.359 152.623 248.486 152.675 248.585 152.78C248.689 152.878 248.741 153.002 248.741 153.153C248.741 154.148 248.31 154.9 247.448 155.41C246.591 155.919 245.35 156.174 243.724 156.174ZM250.165 144.672V144.377C250.165 144.07 250.251 143.827 250.425 143.648C250.604 143.468 250.85 143.378 251.163 143.378H252.239C252.546 143.378 252.789 143.468 252.968 143.648C253.148 143.821 253.238 144.064 253.238 144.377V144.672C253.238 144.979 253.148 145.222 252.968 145.401C252.795 145.58 252.552 145.67 252.239 145.67H251.163C250.856 145.67 250.613 145.58 250.434 145.401C250.254 145.222 250.165 144.979 250.165 144.672ZM250.199 155.47V147.233C250.199 147.076 250.249 146.949 250.347 146.851C250.451 146.752 250.578 146.703 250.729 146.703H252.673C252.83 146.703 252.957 146.755 253.055 146.859C253.154 146.958 253.203 147.082 253.203 147.233V155.47C253.203 155.627 253.151 155.754 253.047 155.852C252.948 155.951 252.824 156 252.673 156H250.729C250.573 156 250.445 155.951 250.347 155.852C250.249 155.754 250.199 155.627 250.199 155.47ZM261.953 148.691L260.616 148.639C259.835 148.639 259.088 149.067 258.376 149.924V155.47C258.376 155.627 258.324 155.754 258.22 155.852C258.122 155.951 257.997 156 257.847 156H255.902C255.746 156 255.619 155.951 255.52 155.852C255.422 155.754 255.373 155.627 255.373 155.47V147.024C255.373 146.868 255.422 146.741 255.52 146.642C255.625 146.538 255.752 146.486 255.902 146.486H257.847C258.003 146.486 258.13 146.538 258.229 146.642C258.327 146.741 258.376 146.868 258.376 147.024V147.571C258.967 147.143 259.534 146.828 260.078 146.625C260.628 146.417 261.345 146.313 262.231 146.313C262.387 146.313 262.514 146.365 262.613 146.469C262.717 146.567 262.769 146.692 262.769 146.842V148.161C262.769 148.318 262.717 148.445 262.613 148.543C262.514 148.642 262.387 148.691 262.231 148.691H261.953ZM265.902 153.188C266.649 153.188 267.022 153.462 267.022 154.012C267.022 154.163 266.982 154.339 266.901 154.542L265.868 157.155C265.746 157.438 265.564 157.675 265.321 157.866C265.078 158.057 264.803 158.153 264.496 158.153H264.158C263.793 158.153 263.562 158.075 263.463 157.918C263.371 157.768 263.324 157.612 263.324 157.45C263.324 157.288 263.336 157.131 263.359 156.981L263.871 154.186C263.923 153.914 264.082 153.679 264.349 153.483C264.615 153.286 264.895 153.188 265.191 153.188H265.902ZM275.043 155.47V144.09C275.043 143.934 275.092 143.807 275.191 143.708C275.295 143.604 275.422 143.552 275.573 143.552H277.517C277.668 143.552 277.792 143.604 277.89 143.708C277.994 143.807 278.047 143.934 278.047 144.09V155.47C278.047 155.621 277.994 155.748 277.89 155.852C277.792 155.951 277.668 156 277.517 156H275.573C275.422 156 275.295 155.951 275.191 155.852C275.092 155.748 275.043 155.621 275.043 155.47ZM280.998 154.924C280.095 154.09 279.644 152.863 279.644 151.243C279.644 149.617 280.095 148.39 280.998 147.563C281.901 146.729 283.197 146.313 284.887 146.313C286.582 146.313 287.882 146.729 288.784 147.563C289.687 148.39 290.139 149.617 290.139 151.243C290.139 152.863 289.687 154.09 288.784 154.924C287.882 155.757 286.582 156.174 284.887 156.174C283.197 156.174 281.901 155.757 280.998 154.924ZM283.194 148.986C282.835 149.455 282.656 150.204 282.656 151.234C282.656 152.264 282.835 153.017 283.194 153.491C283.553 153.966 284.117 154.203 284.887 154.203C285.662 154.203 286.229 153.966 286.588 153.491C286.953 153.017 287.135 152.264 287.135 151.234C287.135 150.204 286.953 149.455 286.588 148.986C286.229 148.517 285.662 148.283 284.887 148.283C284.117 148.283 283.553 148.517 283.194 148.986ZM25.5466 174.234C25.5466 170.953 27.3839 169.313 31.0587 169.313C31.9036 169.313 32.7746 169.408 33.6716 169.599C34.5743 169.784 35.2572 170.013 35.7202 170.285V181.396C35.7202 181.552 35.6681 181.679 35.5639 181.778C35.4655 181.882 35.3382 181.934 35.182 181.934H33.2462C33.0957 181.934 32.9684 181.882 32.8643 181.778C32.7659 181.679 32.7167 181.552 32.7167 181.396V178.731C31.7792 179.026 30.943 179.174 30.208 179.174C28.7844 179.174 27.6501 178.751 26.8052 177.906C25.9661 177.061 25.5466 175.837 25.5466 174.234ZM30.833 177.082C31.3423 177.082 31.9702 176.963 32.7167 176.726V171.604C32.219 171.477 31.5853 171.413 30.8157 171.413C30.046 171.413 29.4904 171.636 29.149 172.082C28.8133 172.521 28.6455 173.239 28.6455 174.234C28.6455 175.23 28.8104 175.953 29.1403 176.405C29.4702 176.856 30.0344 177.082 30.833 177.082ZM37.8556 174.998V170.024C37.8556 169.868 37.9048 169.741 38.0032 169.642C38.1073 169.538 38.2346 169.486 38.3851 169.486H40.3295C40.48 169.486 40.6044 169.538 40.7028 169.642C40.807 169.741 40.8591 169.868 40.8591 170.024V174.998C40.8591 176.387 41.4088 177.082 42.5084 177.082C43.2317 177.082 44.0101 176.665 44.8434 175.832V170.024C44.8434 169.868 44.8926 169.741 44.991 169.642C45.0952 169.538 45.2225 169.486 45.3729 169.486H47.3087C47.465 169.486 47.5923 169.538 47.6907 169.642C47.7948 169.741 47.8469 169.868 47.8469 170.024V178.47C47.8469 178.621 47.7948 178.748 47.6907 178.852C47.5923 178.951 47.465 179 47.3087 179H45.3729C45.2225 179 45.0952 178.951 44.991 178.852C44.8926 178.748 44.8434 178.621 44.8434 178.47V177.915C43.8481 178.754 42.7861 179.174 41.6577 179.174C40.535 179.174 39.6206 178.832 38.9146 178.149C38.2086 177.461 37.8556 176.41 37.8556 174.998ZM50.7896 177.906C49.8984 177.061 49.4528 175.846 49.4528 174.26C49.4528 172.669 49.9013 171.448 50.7983 170.597C51.6953 169.741 52.9395 169.313 54.5309 169.313C56.1224 169.313 57.3637 169.729 58.2549 170.563C59.1461 171.39 59.5917 172.579 59.5917 174.13V174.625C59.5917 174.781 59.5396 174.911 59.4354 175.016C59.3371 175.114 59.2098 175.163 59.0535 175.163H52.517C52.5749 175.875 52.7775 176.393 53.1247 176.717C53.4777 177.041 54.039 177.203 54.8087 177.203C55.5784 177.203 56.105 177.03 56.3886 176.682C56.6721 176.335 57.0223 176.159 57.4389 176.153H58.7323C58.8886 176.153 59.0159 176.205 59.1143 176.309C59.2184 176.407 59.2705 176.535 59.2705 176.691C59.2705 178.352 57.6878 179.179 54.5223 179.174C52.925 179.174 51.6808 178.751 50.7896 177.906ZM52.4997 173.332H56.5361C56.4783 171.966 55.807 171.283 54.5223 171.283C53.2433 171.283 52.5691 171.966 52.4997 173.332ZM67.4216 178.47V170.024C67.4216 169.868 67.4707 169.741 67.5691 169.642C67.6733 169.538 67.8006 169.486 67.9511 169.486H69.8955C70.0518 169.486 70.1791 169.538 70.2775 169.642C70.3758 169.741 70.425 169.868 70.425 170.024V170.571C70.8417 170.166 71.2497 169.856 71.649 169.642C72.0541 169.422 72.5402 169.313 73.1073 169.313C74.4557 169.313 75.4771 169.868 76.1716 170.979C77.2479 169.862 78.3504 169.307 79.4788 169.313C80.6131 169.313 81.5072 169.654 82.1611 170.337C82.8209 171.014 83.1507 172.064 83.1507 173.488V178.47C83.1507 178.627 83.1015 178.754 83.0032 178.852C82.9048 178.951 82.7775 179 82.6212 179H80.6854C80.5292 179 80.399 178.951 80.2948 178.852C80.1964 178.748 80.1472 178.621 80.1472 178.47V173.488C80.1472 172.099 79.6438 171.407 78.6368 171.413C78.0234 171.413 77.3897 171.856 76.7358 172.741C76.7705 172.99 76.7879 173.239 76.7879 173.488V178.47C76.7879 178.627 76.7358 178.754 76.6316 178.852C76.5332 178.951 76.4088 179 76.2584 179H74.3226C74.1663 179 74.0361 178.951 73.932 178.852C73.8336 178.748 73.7844 178.621 73.7844 178.47V173.488C73.7844 172.099 73.2809 171.407 72.274 171.413C71.6316 171.413 71.0153 171.827 70.425 172.655V178.47C70.425 178.627 70.3729 178.754 70.2688 178.852C70.1704 178.951 70.046 179 69.8955 179H67.9511C67.7948 179 67.6675 178.951 67.5691 178.852C67.4707 178.754 67.4216 178.627 67.4216 178.47ZM86.0847 177.906C85.1935 177.061 84.7479 175.846 84.7479 174.26C84.7479 172.669 85.1964 171.448 86.0934 170.597C86.9904 169.741 88.2346 169.313 89.8261 169.313C91.4175 169.313 92.6588 169.729 93.55 170.563C94.4412 171.39 94.8868 172.579 94.8868 174.13V174.625C94.8868 174.781 94.8347 174.911 94.7306 175.016C94.6322 175.114 94.5049 175.163 94.3486 175.163H87.8122C87.87 175.875 88.0726 176.393 88.4198 176.717C88.7728 177.041 89.3342 177.203 90.1038 177.203C90.8735 177.203 91.4001 177.03 91.6837 176.682C91.9673 176.335 92.3174 176.159 92.7341 176.153H94.0275C94.1837 176.153 94.311 176.205 94.4094 176.309C94.5136 176.407 94.5657 176.535 94.5657 176.691C94.5657 178.352 92.9829 179.179 89.8174 179.174C88.2202 179.174 86.976 178.751 86.0847 177.906ZM87.7948 173.332H91.8313C91.7734 171.966 91.1021 171.283 89.8174 171.283C88.5385 171.283 87.8643 171.966 87.7948 173.332ZM106.571 178.271C105.257 178.271 104.195 177.874 103.385 177.082C102.581 176.289 102.179 175.189 102.179 173.783C102.179 172.377 102.639 171.28 103.559 170.493C104.479 169.706 105.798 169.313 107.517 169.313C108.356 169.313 109.227 169.408 110.13 169.599C111.033 169.784 111.713 170.013 112.17 170.285V178.323C112.17 179.613 111.744 180.565 110.894 181.179C110.043 181.798 108.848 182.108 107.309 182.108C105.775 182.108 104.592 181.914 103.758 181.526C102.931 181.144 102.517 180.51 102.517 179.625C102.517 179.469 102.566 179.339 102.665 179.234C102.769 179.136 102.899 179.087 103.055 179.087H104.349C104.765 179.087 105.098 179.24 105.347 179.547C105.665 179.94 106.229 180.137 107.04 180.137C107.856 180.137 108.414 180.004 108.715 179.738C109.016 179.472 109.166 179 109.166 178.323V177.915C108.24 178.152 107.375 178.271 106.571 178.271ZM107.335 171.413C105.963 171.407 105.277 172.2 105.277 173.792C105.277 175.377 105.946 176.17 107.283 176.17C107.838 176.17 108.466 176.083 109.166 175.91V171.604C108.669 171.471 108.058 171.407 107.335 171.413ZM114.314 174.998V170.024C114.314 169.868 114.363 169.741 114.461 169.642C114.566 169.538 114.693 169.486 114.843 169.486H116.788C116.938 169.486 117.063 169.538 117.161 169.642C117.265 169.741 117.317 169.868 117.317 170.024V174.998C117.317 176.387 117.867 177.082 118.967 177.082C119.69 177.082 120.468 176.665 121.302 175.832V170.024C121.302 169.868 121.351 169.741 121.449 169.642C121.553 169.538 121.681 169.486 121.831 169.486H123.767C123.923 169.486 124.051 169.538 124.149 169.642C124.253 169.741 124.305 169.868 124.305 170.024V178.47C124.305 178.621 124.253 178.748 124.149 178.852C124.051 178.951 123.923 179 123.767 179H121.831C121.681 179 121.553 178.951 121.449 178.852C121.351 178.748 121.302 178.621 121.302 178.47V177.915C120.306 178.754 119.244 179.174 118.116 179.174C116.993 179.174 116.079 178.832 115.373 178.149C114.667 177.461 114.314 176.41 114.314 174.998ZM125.911 172.116C125.911 170.247 127.419 169.313 130.434 169.313C133.605 169.313 135.191 170.143 135.191 171.804C135.191 171.954 135.141 172.082 135.043 172.186C134.945 172.284 134.817 172.333 134.661 172.333H133.368C132.951 172.333 132.601 172.16 132.317 171.813C132.034 171.459 131.475 171.283 130.642 171.283C129.496 171.283 128.923 171.561 128.923 172.116C128.923 172.377 129.146 172.594 129.592 172.767C130.043 172.941 130.59 173.094 131.232 173.227C131.88 173.355 132.526 173.52 133.168 173.722C133.81 173.925 134.354 174.249 134.8 174.694C135.251 175.134 135.477 175.693 135.477 176.37C135.477 178.239 133.886 179.174 130.703 179.174C127.52 179.174 125.928 178.346 125.928 176.691C125.928 176.535 125.978 176.407 126.076 176.309C126.18 176.205 126.31 176.153 126.467 176.153H127.76C128.177 176.153 128.527 176.329 128.81 176.682C129.094 177.03 129.652 177.203 130.486 177.203C131.811 177.203 132.474 176.925 132.474 176.37C132.474 176.109 132.248 175.892 131.797 175.719C131.351 175.545 130.804 175.392 130.156 175.259C129.508 175.12 128.863 174.952 128.22 174.755C127.584 174.553 127.04 174.229 126.588 173.783C126.137 173.337 125.911 172.782 125.911 172.116ZM141.623 177.116L142.812 177.012H143.133C143.29 177.012 143.417 177.061 143.515 177.16C143.619 177.258 143.672 177.385 143.672 177.542V178.47C143.672 178.598 143.619 178.714 143.515 178.818C143.417 178.916 143.29 178.977 143.133 179C142.543 179.116 141.773 179.174 140.824 179.174C138.336 179.174 137.092 177.872 137.092 175.267V167.09C137.092 166.934 137.141 166.807 137.239 166.708C137.343 166.604 137.471 166.552 137.621 166.552H139.566C139.716 166.552 139.841 166.604 139.939 166.708C140.043 166.807 140.095 166.934 140.095 167.09V169.99H142.517C142.667 169.99 142.792 170.039 142.89 170.137C142.994 170.236 143.047 170.363 143.047 170.519V171.552C143.047 171.708 142.994 171.836 142.89 171.934C142.792 172.032 142.667 172.082 142.517 172.082H140.095V175.267C140.095 175.858 140.234 176.315 140.512 176.639C140.79 176.957 141.16 177.116 141.623 177.116ZM145.616 178.375C144.852 177.843 144.47 177.09 144.47 176.118C144.47 175.146 144.852 174.399 145.616 173.878C146.386 173.358 147.375 173.097 148.585 173.097H151.458C151.458 172.42 151.316 171.948 151.033 171.682C150.749 171.416 150.251 171.283 149.54 171.283C148.834 171.283 148.336 171.459 148.047 171.813C147.763 172.16 147.413 172.333 146.996 172.333H145.703C145.547 172.333 145.416 172.284 145.312 172.186C145.214 172.082 145.165 171.954 145.165 171.804C145.165 170.143 146.742 169.313 149.896 169.313C151.273 169.313 152.378 169.622 153.211 170.241C154.045 170.855 154.461 171.807 154.461 173.097V178.47C154.461 178.627 154.412 178.754 154.314 178.852C154.216 178.951 154.088 179 153.932 179H152.257C152.1 179 151.973 178.951 151.875 178.852C151.776 178.748 151.727 178.621 151.727 178.47V178.201C150.813 178.855 149.757 179.179 148.559 179.174C147.367 179.174 146.386 178.907 145.616 178.375ZM148.793 175.068C148.388 175.068 148.067 175.166 147.83 175.363C147.598 175.56 147.482 175.814 147.482 176.127C147.482 176.439 147.604 176.697 147.847 176.899C148.09 177.102 148.434 177.203 148.88 177.203C149.771 177.203 150.63 176.943 151.458 176.422V175.068H148.793ZM162.838 178.47V167.09C162.838 166.934 162.887 166.807 162.986 166.708C163.09 166.604 163.217 166.552 163.368 166.552H165.312C165.463 166.552 165.587 166.604 165.685 166.708C165.79 166.807 165.842 166.934 165.842 167.09V170.571C166.837 169.732 167.896 169.313 169.019 169.313C170.147 169.313 171.064 169.657 171.771 170.345C172.477 171.028 172.83 172.076 172.83 173.488V178.47C172.83 178.621 172.777 178.748 172.673 178.852C172.575 178.951 172.448 179 172.291 179H170.356C170.205 179 170.078 178.951 169.974 178.852C169.875 178.748 169.826 178.621 169.826 178.47V173.488C169.826 172.105 169.273 171.413 168.168 171.413C167.445 171.413 166.669 171.827 165.842 172.655V178.47C165.842 178.621 165.79 178.748 165.685 178.852C165.587 178.951 165.463 179 165.312 179H163.368C163.217 179 163.09 178.951 162.986 178.852C162.887 178.748 162.838 178.621 162.838 178.47ZM175.581 178.375C174.817 177.843 174.435 177.09 174.435 176.118C174.435 175.146 174.817 174.399 175.581 173.878C176.351 173.358 177.341 173.097 178.55 173.097H181.423C181.423 172.42 181.282 171.948 180.998 171.682C180.714 171.416 180.217 171.283 179.505 171.283C178.799 171.283 178.301 171.459 178.012 171.813C177.728 172.16 177.378 172.333 176.961 172.333H175.668C175.512 172.333 175.382 172.284 175.277 172.186C175.179 172.082 175.13 171.954 175.13 171.804C175.13 170.143 176.707 169.313 179.861 169.313C181.238 169.313 182.343 169.622 183.177 170.241C184.01 170.855 184.427 171.807 184.427 173.097V178.47C184.427 178.627 184.378 178.754 184.279 178.852C184.181 178.951 184.053 179 183.897 179H182.222C182.066 179 181.938 178.951 181.84 178.852C181.742 178.748 181.692 178.621 181.692 178.47V178.201C180.778 178.855 179.722 179.179 178.524 179.174C177.332 179.174 176.351 178.907 175.581 178.375ZM178.758 175.068C178.353 175.068 178.032 175.166 177.795 175.363C177.563 175.56 177.448 175.814 177.448 176.127C177.448 176.439 177.569 176.697 177.812 176.899C178.055 177.102 178.4 177.203 178.845 177.203C179.736 177.203 180.596 176.943 181.423 176.422V175.068H178.758ZM191.172 179.174C189.551 179.174 188.29 178.757 187.387 177.924C186.484 177.09 186.033 175.866 186.033 174.252C186.033 172.631 186.481 171.405 187.378 170.571C188.275 169.732 189.522 169.313 191.119 169.313C192.722 169.313 193.952 169.567 194.809 170.076C195.671 170.586 196.102 171.338 196.102 172.333C196.102 172.49 196.05 172.617 195.946 172.715C195.847 172.814 195.72 172.863 195.564 172.863H194.271C193.877 172.863 193.544 172.652 193.272 172.229C192.931 171.685 192.326 171.413 191.458 171.413C190.596 171.413 189.991 171.636 189.644 172.082C189.302 172.521 189.132 173.242 189.132 174.243C189.132 175.244 189.308 175.968 189.661 176.413C190.02 176.859 190.639 177.082 191.519 177.082C192.404 177.082 193.018 176.81 193.359 176.266C193.631 175.837 193.964 175.623 194.357 175.623H195.651C195.807 175.623 195.934 175.675 196.033 175.78C196.137 175.878 196.189 176.002 196.189 176.153C196.189 177.148 195.758 177.9 194.896 178.41C194.039 178.919 192.798 179.174 191.172 179.174ZM198.411 177.906C197.52 177.061 197.074 175.846 197.074 174.26C197.074 172.669 197.523 171.448 198.42 170.597C199.317 169.741 200.561 169.313 202.152 169.313C203.744 169.313 204.985 169.729 205.876 170.563C206.768 171.39 207.213 172.579 207.213 174.13V174.625C207.213 174.781 207.161 174.911 207.057 175.016C206.959 175.114 206.831 175.163 206.675 175.163H200.139C200.196 175.875 200.399 176.393 200.746 176.717C201.099 177.041 201.661 177.203 202.43 177.203C203.2 177.203 203.727 177.03 204.01 176.682C204.294 176.335 204.644 176.159 205.06 176.153H206.354C206.51 176.153 206.637 176.205 206.736 176.309C206.84 176.407 206.892 176.535 206.892 176.691C206.892 178.352 205.309 179.179 202.144 179.174C200.547 179.174 199.302 178.751 198.411 177.906ZM200.121 173.332H204.158C204.1 171.966 203.428 171.283 202.144 171.283C200.865 171.283 200.191 171.966 200.121 173.332ZM215.39 171.691L214.053 171.639C213.272 171.639 212.526 172.067 211.814 172.924V178.47C211.814 178.627 211.762 178.754 211.658 178.852C211.559 178.951 211.435 179 211.284 179H209.34C209.184 179 209.056 178.951 208.958 178.852C208.86 178.754 208.81 178.627 208.81 178.47V170.024C208.81 169.868 208.86 169.741 208.958 169.642C209.062 169.538 209.189 169.486 209.34 169.486H211.284C211.441 169.486 211.568 169.538 211.666 169.642C211.765 169.741 211.814 169.868 211.814 170.024V170.571C212.404 170.143 212.971 169.828 213.515 169.625C214.065 169.417 214.783 169.313 215.668 169.313C215.824 169.313 215.952 169.365 216.05 169.469C216.154 169.567 216.206 169.692 216.206 169.842V171.161C216.206 171.318 216.154 171.445 216.05 171.543C215.952 171.642 215.824 171.691 215.668 171.691H215.39ZM224.488 177.906C223.596 177.061 223.151 175.846 223.151 174.26C223.151 172.669 223.599 171.448 224.496 170.597C225.393 169.741 226.637 169.313 228.229 169.313C229.82 169.313 231.062 169.729 231.953 170.563C232.844 171.39 233.29 172.579 233.29 174.13V174.625C233.29 174.781 233.238 174.911 233.133 175.016C233.035 175.114 232.908 175.163 232.751 175.163H226.215C226.273 175.875 226.475 176.393 226.823 176.717C227.176 177.041 227.737 177.203 228.507 177.203C229.276 177.203 229.803 177.03 230.086 176.682C230.37 176.335 230.72 176.159 231.137 176.153H232.43C232.586 176.153 232.714 176.205 232.812 176.309C232.916 176.407 232.968 176.535 232.968 176.691C232.968 178.352 231.386 179.179 228.22 179.174C226.623 179.174 225.379 178.751 224.488 177.906ZM226.198 173.332H230.234C230.176 171.966 229.505 171.283 228.22 171.283C226.941 171.283 226.267 171.966 226.198 173.332ZM234.887 178.47V170.024C234.887 169.868 234.936 169.741 235.034 169.642C235.139 169.538 235.266 169.486 235.416 169.486H237.361C237.511 169.486 237.636 169.538 237.734 169.642C237.838 169.741 237.89 169.868 237.89 170.024V170.571C238.886 169.732 239.945 169.313 241.067 169.313C242.196 169.313 243.113 169.657 243.819 170.345C244.525 171.028 244.878 172.076 244.878 173.488V178.47C244.878 178.621 244.826 178.748 244.722 178.852C244.624 178.951 244.496 179 244.34 179H242.404C242.254 179 242.126 178.951 242.022 178.852C241.924 178.748 241.875 178.621 241.875 178.47V173.488C241.875 172.105 241.322 171.413 240.217 171.413C239.493 171.413 238.718 171.827 237.89 172.655V178.47C237.89 178.621 237.838 178.748 237.734 178.852C237.636 178.951 237.511 179 237.361 179H235.416C235.266 179 235.139 178.951 235.034 178.852C234.936 178.748 234.887 178.621 234.887 178.47ZM253.255 178.47V170.024C253.255 169.868 253.304 169.741 253.402 169.642C253.507 169.538 253.634 169.486 253.784 169.486H255.729C255.885 169.486 256.012 169.538 256.111 169.642C256.209 169.741 256.258 169.868 256.258 170.024V170.571C256.675 170.166 257.083 169.856 257.482 169.642C257.887 169.422 258.374 169.313 258.941 169.313C260.289 169.313 261.31 169.868 262.005 170.979C263.081 169.862 264.184 169.307 265.312 169.313C266.446 169.313 267.341 169.654 267.994 170.337C268.654 171.014 268.984 172.064 268.984 173.488V178.47C268.984 178.627 268.935 178.754 268.836 178.852C268.738 178.951 268.611 179 268.455 179H266.519C266.363 179 266.232 178.951 266.128 178.852C266.03 178.748 265.981 178.621 265.981 178.47V173.488C265.981 172.099 265.477 171.407 264.47 171.413C263.857 171.413 263.223 171.856 262.569 172.741C262.604 172.99 262.621 173.239 262.621 173.488V178.47C262.621 178.627 262.569 178.754 262.465 178.852C262.367 178.951 262.242 179 262.092 179H260.156C260 179 259.869 178.951 259.765 178.852C259.667 178.748 259.618 178.621 259.618 178.47V173.488C259.618 172.099 259.114 171.407 258.107 171.413C257.465 171.413 256.849 171.827 256.258 172.655V178.47C256.258 178.627 256.206 178.754 256.102 178.852C256.004 178.951 255.879 179 255.729 179H253.784C253.628 179 253.501 178.951 253.402 178.852C253.304 178.754 253.255 178.627 253.255 178.47ZM271.119 167.672V167.377C271.119 167.07 271.206 166.827 271.38 166.648C271.559 166.468 271.805 166.378 272.118 166.378H273.194C273.501 166.378 273.744 166.468 273.923 166.648C274.103 166.821 274.192 167.064 274.192 167.377V167.672C274.192 167.979 274.103 168.222 273.923 168.401C273.75 168.58 273.507 168.67 273.194 168.67H272.118C271.811 168.67 271.568 168.58 271.389 168.401C271.209 168.222 271.119 167.979 271.119 167.672ZM271.154 178.47V170.233C271.154 170.076 271.203 169.949 271.302 169.851C271.406 169.752 271.533 169.703 271.684 169.703H273.628C273.784 169.703 273.912 169.755 274.01 169.859C274.108 169.958 274.158 170.082 274.158 170.233V178.47C274.158 178.627 274.106 178.754 274.001 178.852C273.903 178.951 273.779 179 273.628 179H271.684C271.527 179 271.4 178.951 271.302 178.852C271.203 178.754 271.154 178.627 271.154 178.47ZM98.8799 200.116L100.069 200.012H100.39C100.547 200.012 100.674 200.061 100.772 200.16C100.876 200.258 100.928 200.385 100.928 200.542V201.47C100.928 201.598 100.876 201.714 100.772 201.818C100.674 201.916 100.547 201.977 100.39 202C99.8 202.116 99.0304 202.174 98.0813 202.174C95.5929 202.174 94.3486 200.872 94.3486 198.267V190.09C94.3486 189.934 94.3978 189.807 94.4962 189.708C94.6004 189.604 94.7277 189.552 94.8782 189.552H96.8226C96.9731 189.552 97.0975 189.604 97.1959 189.708C97.3 189.807 97.3521 189.934 97.3521 190.09V192.99H99.774C99.9244 192.99 100.049 193.039 100.147 193.137C100.251 193.236 100.303 193.363 100.303 193.519V194.552C100.303 194.708 100.251 194.836 100.147 194.934C100.049 195.032 99.9244 195.082 99.774 195.082H97.3521V198.267C97.3521 198.858 97.491 199.315 97.7688 199.639C98.0466 199.957 98.4169 200.116 98.8799 200.116ZM102.352 190.672V190.377C102.352 190.07 102.439 189.827 102.613 189.648C102.792 189.468 103.038 189.378 103.35 189.378H104.427C104.733 189.378 104.977 189.468 105.156 189.648C105.335 189.821 105.425 190.064 105.425 190.377V190.672C105.425 190.979 105.335 191.222 105.156 191.401C104.982 191.58 104.739 191.67 104.427 191.67H103.35C103.044 191.67 102.801 191.58 102.621 191.401C102.442 191.222 102.352 190.979 102.352 190.672ZM102.387 201.47V193.233C102.387 193.076 102.436 192.949 102.534 192.851C102.639 192.752 102.766 192.703 102.916 192.703H104.861C105.017 192.703 105.144 192.755 105.243 192.859C105.341 192.958 105.39 193.082 105.39 193.233V201.47C105.39 201.627 105.338 201.754 105.234 201.852C105.136 201.951 105.011 202 104.861 202H102.916C102.76 202 102.633 201.951 102.534 201.852C102.436 201.754 102.387 201.627 102.387 201.47ZM108.359 200.906C107.468 200.061 107.022 198.846 107.022 197.26C107.022 195.669 107.471 194.448 108.368 193.597C109.265 192.741 110.509 192.313 112.1 192.313C113.692 192.313 114.933 192.729 115.824 193.563C116.716 194.39 117.161 195.579 117.161 197.13V197.625C117.161 197.781 117.109 197.911 117.005 198.016C116.907 198.114 116.779 198.163 116.623 198.163H110.086C110.144 198.875 110.347 199.393 110.694 199.717C111.047 200.041 111.608 200.203 112.378 200.203C113.148 200.203 113.674 200.03 113.958 199.682C114.242 199.335 114.592 199.159 115.008 199.153H116.302C116.458 199.153 116.585 199.205 116.684 199.309C116.788 199.407 116.84 199.535 116.84 199.691C116.84 201.352 115.257 202.179 112.092 202.174C110.494 202.174 109.25 201.751 108.359 200.906ZM110.069 196.332H114.106C114.048 194.966 113.376 194.283 112.092 194.283C110.813 194.283 110.139 194.966 110.069 196.332ZM118.758 201.47V193.024C118.758 192.868 118.808 192.741 118.906 192.642C119.01 192.538 119.137 192.486 119.288 192.486H121.232C121.389 192.486 121.516 192.538 121.614 192.642C121.713 192.741 121.762 192.868 121.762 193.024V193.571C122.178 193.166 122.586 192.856 122.986 192.642C123.391 192.422 123.877 192.313 124.444 192.313C125.793 192.313 126.814 192.868 127.508 193.979C128.585 192.862 129.687 192.307 130.816 192.313C131.95 192.313 132.844 192.654 133.498 193.337C134.158 194.014 134.488 195.064 134.488 196.488V201.47C134.488 201.627 134.438 201.754 134.34 201.852C134.242 201.951 134.114 202 133.958 202H132.022C131.866 202 131.736 201.951 131.632 201.852C131.533 201.748 131.484 201.621 131.484 201.47V196.488C131.484 195.099 130.981 194.407 129.974 194.413C129.36 194.413 128.727 194.856 128.073 195.741C128.107 195.99 128.125 196.239 128.125 196.488V201.47C128.125 201.627 128.073 201.754 127.968 201.852C127.87 201.951 127.746 202 127.595 202H125.659C125.503 202 125.373 201.951 125.269 201.852C125.17 201.748 125.121 201.621 125.121 201.47V196.488C125.121 195.099 124.618 194.407 123.611 194.413C122.968 194.413 122.352 194.827 121.762 195.655V201.47C121.762 201.627 121.71 201.754 121.606 201.852C121.507 201.951 121.383 202 121.232 202H119.288C119.132 202 119.004 201.951 118.906 201.852C118.808 201.754 118.758 201.627 118.758 201.47ZM136.623 204.396V193.024C136.623 192.868 136.672 192.741 136.771 192.642C136.875 192.538 137.002 192.486 137.152 192.486H138.828C138.978 192.486 139.103 192.538 139.201 192.642C139.305 192.741 139.357 192.868 139.357 193.024V193.285C140.272 192.637 141.334 192.313 142.543 192.313C143.753 192.313 144.762 192.741 145.573 193.597C146.383 194.448 146.788 195.669 146.788 197.26C146.788 198.846 146.368 200.061 145.529 200.906C144.69 201.751 143.559 202.174 142.135 202.174C141.4 202.174 140.564 202.026 139.626 201.731V204.396C139.626 204.552 139.574 204.679 139.47 204.778C139.372 204.882 139.247 204.934 139.097 204.934H137.152C137.002 204.934 136.875 204.882 136.771 204.778C136.672 204.679 136.623 204.552 136.623 204.396ZM139.626 199.726C140.373 199.963 141.001 200.082 141.51 200.082C142.303 200.082 142.864 199.856 143.194 199.405C143.53 198.953 143.698 198.233 143.698 197.243C143.698 196.253 143.538 195.536 143.22 195.09C142.908 194.639 142.436 194.413 141.805 194.413C141.18 194.413 140.454 194.674 139.626 195.194V199.726ZM149.21 200.924C148.307 200.09 147.856 198.863 147.856 197.243C147.856 195.617 148.307 194.39 149.21 193.563C150.113 192.729 151.409 192.313 153.099 192.313C154.794 192.313 156.093 192.729 156.996 193.563C157.899 194.39 158.35 195.617 158.35 197.243C158.35 198.863 157.899 200.09 156.996 200.924C156.093 201.757 154.794 202.174 153.099 202.174C151.409 202.174 150.113 201.757 149.21 200.924ZM151.406 194.986C151.047 195.455 150.868 196.204 150.868 197.234C150.868 198.264 151.047 199.017 151.406 199.491C151.765 199.966 152.329 200.203 153.099 200.203C153.874 200.203 154.441 199.966 154.8 199.491C155.165 199.017 155.347 198.264 155.347 197.234C155.347 196.204 155.165 195.455 154.8 194.986C154.441 194.517 153.874 194.283 153.099 194.283C152.329 194.283 151.765 194.517 151.406 194.986ZM166.189 201.47V190.09C166.189 189.934 166.238 189.807 166.336 189.708C166.441 189.604 166.568 189.552 166.718 189.552H168.663C168.813 189.552 168.938 189.604 169.036 189.708C169.14 189.807 169.192 189.934 169.192 190.09V201.47C169.192 201.621 169.14 201.748 169.036 201.852C168.938 201.951 168.813 202 168.663 202H166.718C166.568 202 166.441 201.951 166.336 201.852C166.238 201.748 166.189 201.621 166.189 201.47ZM171.328 190.672V190.377C171.328 190.07 171.415 189.827 171.588 189.648C171.768 189.468 172.014 189.378 172.326 189.378H173.402C173.709 189.378 173.952 189.468 174.132 189.648C174.311 189.821 174.401 190.064 174.401 190.377V190.672C174.401 190.979 174.311 191.222 174.132 191.401C173.958 191.58 173.715 191.67 173.402 191.67H172.326C172.019 191.67 171.776 191.58 171.597 191.401C171.418 191.222 171.328 190.979 171.328 190.672ZM171.363 201.47V193.233C171.363 193.076 171.412 192.949 171.51 192.851C171.614 192.752 171.742 192.703 171.892 192.703H173.836C173.993 192.703 174.12 192.755 174.218 192.859C174.317 192.958 174.366 193.082 174.366 193.233V201.47C174.366 201.627 174.314 201.754 174.21 201.852C174.111 201.951 173.987 202 173.836 202H171.892C171.736 202 171.608 201.951 171.51 201.852C171.412 201.754 171.363 201.627 171.363 201.47ZM176.536 190.09C176.536 189.934 176.585 189.807 176.684 189.708C176.788 189.604 176.915 189.552 177.066 189.552H179.01C179.161 189.552 179.285 189.604 179.383 189.708C179.488 189.807 179.54 189.934 179.54 190.09V192.755C180.477 192.46 181.313 192.313 182.048 192.313C183.472 192.313 184.603 192.738 185.442 193.589C186.281 194.433 186.701 195.655 186.701 197.252C186.701 200.533 184.864 202.174 181.189 202.174C180.35 202.174 179.479 202.081 178.576 201.896C177.679 201.705 176.999 201.473 176.536 201.201V190.09ZM179.54 194.76V199.882C180.037 200.015 180.671 200.082 181.441 200.082C182.21 200.082 182.763 199.859 183.099 199.413C183.44 198.968 183.611 198.247 183.611 197.252C183.611 196.256 183.443 195.536 183.107 195.09C182.777 194.639 182.216 194.413 181.423 194.413C180.914 194.413 180.286 194.529 179.54 194.76ZM194.887 194.691L193.55 194.639C192.769 194.639 192.022 195.067 191.31 195.924V201.47C191.31 201.627 191.258 201.754 191.154 201.852C191.056 201.951 190.931 202 190.781 202H188.836C188.68 202 188.553 201.951 188.455 201.852C188.356 201.754 188.307 201.627 188.307 201.47V193.024C188.307 192.868 188.356 192.741 188.455 192.642C188.559 192.538 188.686 192.486 188.836 192.486H190.781C190.937 192.486 191.064 192.538 191.163 192.642C191.261 192.741 191.31 192.868 191.31 193.024V193.571C191.901 193.143 192.468 192.828 193.012 192.625C193.562 192.417 194.279 192.313 195.165 192.313C195.321 192.313 195.448 192.365 195.547 192.469C195.651 192.567 195.703 192.692 195.703 192.842V194.161C195.703 194.318 195.651 194.445 195.547 194.543C195.448 194.642 195.321 194.691 195.165 194.691H194.887ZM197.665 200.906C196.773 200.061 196.328 198.846 196.328 197.26C196.328 195.669 196.776 194.448 197.673 193.597C198.57 192.741 199.814 192.313 201.406 192.313C202.997 192.313 204.239 192.729 205.13 193.563C206.021 194.39 206.467 195.579 206.467 197.13V197.625C206.467 197.781 206.415 197.911 206.31 198.016C206.212 198.114 206.085 198.163 205.928 198.163H199.392C199.45 198.875 199.652 199.393 200 199.717C200.353 200.041 200.914 200.203 201.684 200.203C202.453 200.203 202.98 200.03 203.264 199.682C203.547 199.335 203.897 199.159 204.314 199.153H205.607C205.764 199.153 205.891 199.205 205.989 199.309C206.093 199.407 206.146 199.535 206.146 199.691C206.146 201.352 204.563 202.179 201.397 202.174C199.8 202.174 198.556 201.751 197.665 200.906ZM199.375 196.332H203.411C203.353 194.966 202.682 194.283 201.397 194.283C200.118 194.283 199.444 194.966 199.375 196.332Z" fill="#5C77FF"/>
<rect x="-86.1113" y="265" width="114.722" height="5.55556" fill="#5C77FF"/>
<rect x="21.9502" y="255.556" width="16.9444" height="4.72222" rx="2.36111" transform="rotate(45 21.9502 255.556)" fill="#5C77FF"/>
<rect x="18.6113" y="276.704" width="16.9444" height="4.72222" rx="2.36111" transform="rotate(-45 18.6113 276.704)" fill="#5C77FF"/>
</g>
<defs>
<clipPath id="clip0_195_5">
<rect width="300" height="300" fill="white"/>
</clipPath>
</defs>
</svg>
