<svg width="25" height="10" viewBox="0 0 25 10" fill="none" xmlns="http://www.w3.org/2000/svg">
<path d="M0 1.43604L0.833333 1.71443C1.66667 1.99283 3.33333 2.54962 5 2.92023C6.66667 3.2978 8.33333 3.4718 10 2.73579C11.6667 1.99283 13.3333 0.322459 15 0.0440645C16.6667 -0.23433 18.3333 0.879248 20 1.34382C21.6667 1.80143 23.3333 1.62743 24.1667 1.52826L25 1.43604V3.66319H24.1667C23.3333 3.66319 21.6667 3.66319 20 3.66319C18.3333 3.66319 16.6667 3.66319 15 3.66319C13.3333 3.66319 11.6667 3.66319 10 3.66319C8.33333 3.66319 6.66667 3.66319 5 3.66319C3.33333 3.66319 1.66667 3.66319 0.833333 3.66319H0V1.43604Z" fill="#D8D8D8"/>
<rect y="3.36804" width="25" height="6.40625" fill="#D8D8D8"/>
</svg>
