<svg width="498" height="524" viewBox="0 0 498 524" fill="none" xmlns="http://www.w3.org/2000/svg">
<path d="M410.578 410.219C441.188 410.219 470.578 405.094 497.984 395.67C450.594 472.358 365.781 523.467 268.998 523.467C120.437 523.467 0 403.03 0 254.467C0 136.498 75.9375 36.2797 181.594 0C156.236 41.0469 141.578 89.4062 141.578 141.203C141.578 289.767 262.016 410.219 410.578 410.219Z" fill="#FFD55E"/>
<path d="M28.125 260.383C28.125 158.484 84.789 69.8375 168.319 24.1922C172.339 15.8828 176.77 7.80781 181.594 0C75.9375 36.2812 0 136.5 0 254.469C0 388.969 98.7188 500.412 227.648 520.306C112.763 489.673 28.125 384.919 28.125 260.383Z" fill="#E5BA4E"/>
<path d="M264.703 475.031C143.947 475.031 45.7047 376.787 45.7047 256.031C45.7047 251.716 49.2016 248.219 53.5172 248.219C57.8312 248.219 61.3297 251.716 61.3297 256.031C61.3297 368.173 152.562 459.406 264.703 459.406C269.019 459.406 272.516 462.903 272.516 467.219C272.516 471.534 269.017 475.031 264.703 475.031Z" fill="#E5BA4E"/>
</svg>
