<svg width="30" height="30" viewBox="0 0 800 800" fill="none" xmlns="http://www.w3.org/2000/svg">
<path d="M666.667 200H566.667V133.333C566.667 115.652 559.643 98.6953 547.141 86.1929C534.638 73.6905 517.681 66.6667 500 66.6667H300C282.319 66.6667 265.362 73.6905 252.86 86.1929C240.357 98.6953 233.333 115.652 233.333 133.333V200H133.333C115.652 200 98.6954 207.024 86.193 219.526C73.6905 232.029 66.6667 248.986 66.6667 266.667V666.667C66.6667 684.348 73.6905 701.305 86.193 713.807C98.6954 726.31 115.652 733.333 133.333 733.333H666.667C684.348 733.333 701.305 726.31 713.807 713.807C726.31 701.305 733.333 684.348 733.333 666.667V266.667C733.333 248.986 726.31 232.029 713.807 219.526C701.305 207.024 684.348 200 666.667 200ZM300 133.333H500V200H300V133.333Z" fill="#D8D8D8"/>
</svg>
