<svg width="25" height="25" viewBox="0 0 535 535" fill="none" xmlns="http://www.w3.org/2000/svg">
<path fill-rule="evenodd" clip-rule="evenodd" d="M3.34375 99.3094C3.34375 78.2916 11.693 58.1351 26.5547 43.2731C41.4166 28.412 61.573 20.0625 82.5909 20.0625H452.409C473.427 20.0625 493.584 28.412 508.446 43.2731C523.308 58.1351 531.656 78.2916 531.656 99.3094V363.466C531.656 384.483 523.308 404.64 508.446 419.502C493.584 434.364 473.427 442.712 452.409 442.712H342.204C335.198 442.714 328.481 445.498 323.528 450.453L274.21 499.77C242.511 531.496 188.253 509.016 188.253 464.162C188.253 458.473 185.993 453.018 181.97 448.995C177.948 444.973 172.493 442.712 166.803 442.712H82.5909C61.573 442.712 41.4166 434.364 26.5547 419.502C11.693 404.64 3.34375 384.483 3.34375 363.466V99.3094ZM135.422 99.3094C128.416 99.3094 121.697 102.093 116.743 107.046C111.789 112 109.006 118.719 109.006 125.725C109.006 132.731 111.789 139.45 116.743 144.404C121.697 149.358 128.416 152.141 135.422 152.141H399.579C406.584 152.141 413.303 149.358 418.257 144.404C423.211 139.45 425.994 132.731 425.994 125.725C425.994 118.719 423.211 112 418.257 107.046C413.303 102.093 406.584 99.3094 399.579 99.3094H135.422ZM135.422 204.972C128.416 204.972 121.697 207.755 116.743 212.709C111.789 217.663 109.006 224.382 109.006 231.388C109.006 238.393 111.789 245.113 116.743 250.066C121.697 255.02 128.416 257.803 135.422 257.803H399.579C406.584 257.803 413.303 255.02 418.257 250.066C423.211 245.113 425.994 238.393 425.994 231.388C425.994 224.382 423.211 217.663 418.257 212.709C413.303 207.755 406.584 204.972 399.579 204.972H135.422ZM135.422 310.635C128.416 310.635 121.697 313.418 116.743 318.372C111.789 323.325 109.006 330.044 109.006 337.05C109.006 344.056 111.789 350.775 116.743 355.729C121.697 360.682 128.416 363.466 135.422 363.466H241.085C248.09 363.466 254.81 360.682 259.763 355.729C264.717 350.775 267.5 344.056 267.5 337.05C267.5 330.044 264.717 323.325 259.763 318.372C254.81 313.418 248.09 310.635 241.085 310.635H135.422Z" fill="#D8D8D8"/>
<path d="M402.579 101H131.421C117.381 101 106 112.641 106 127C106 141.359 117.381 153 131.421 153H402.579C416.619 153 428 141.359 428 127C428 112.641 416.619 101 402.579 101Z" fill="#1E1E1E"/>
<path d="M402.579 204H131.421C117.381 204 106 216.312 106 231.5C106 246.688 117.381 259 131.421 259H402.579C416.619 259 428 246.688 428 231.5C428 216.312 416.619 204 402.579 204Z" fill="#1E1E1E"/>
<path d="M245.789 310H132.211C117.735 310 106 322.536 106 338C106 353.464 117.735 366 132.211 366H245.789C260.265 366 272 353.464 272 338C272 322.536 260.265 310 245.789 310Z" fill="#1E1E1E"/>
</svg>
