<svg width="70" height="70" viewBox="0 0 70 70" fill="none" xmlns="http://www.w3.org/2000/svg">
<path fill-rule="evenodd" clip-rule="evenodd" d="M56.3285 5.17645C60.7895 5.17645 64.4057 8.79275 64.4057 13.2537V56.3321C64.4057 60.7931 60.7895 64.4093 56.3285 64.4093H13.2501C8.78915 64.4093 5.17285 60.7931 5.17285 56.3321V13.2537C5.17285 8.79275 8.78915 5.17645 13.2501 5.17645H56.3285ZM56.3285 10.5613C57.8155 10.5613 59.0209 11.7667 59.0209 13.2537V56.3321C59.0209 57.8191 57.8155 59.0245 56.3285 59.0245H13.2501C11.7631 59.0245 10.5577 57.8191 10.5577 56.3321V13.2537C10.5577 11.7667 11.7631 10.5613 13.2501 10.5613H56.3285Z" fill="#D8D8D8"/>
<path d="M18.9396 23.2638C21.3273 23.2638 23.263 21.3282 23.263 18.9405C23.263 16.5527 21.3273 14.6171 18.9396 14.6171C16.5518 14.6171 14.6162 16.5527 14.6162 18.9405C14.6162 21.3282 16.5518 23.2638 18.9396 23.2638Z" fill="#D8D8D8"/>
<path d="M14.6162 29.0284C14.6162 27.4366 15.9067 26.1461 17.4985 26.1461H20.3807C21.9725 26.1461 23.263 27.4366 23.263 29.0284V52.0864C23.263 53.6783 21.9725 54.9686 20.3807 54.9686H17.4985C15.9067 54.9686 14.6162 53.6783 14.6162 52.0864V29.0284Z" fill="#D8D8D8"/>
<path d="M31.9086 54.9686H34.7909C36.3827 54.9686 37.6731 53.6783 37.6731 52.0864V39.1163C37.6731 34.7929 46.3199 31.9106 46.3199 37.6751V52.0876C46.3199 53.6794 47.6102 54.9686 49.2021 54.9686H52.0844C53.6762 54.9686 54.9666 53.6783 54.9666 52.0864V34.7929C54.9666 29.0284 50.6432 26.1461 44.8787 26.1461C39.1142 26.1461 37.6731 30.4695 37.6731 30.4695V29.0284C37.6731 27.4366 36.3827 26.1461 34.7909 26.1461H31.9086C30.3168 26.1461 29.0264 27.4366 29.0264 29.0284V52.0864C29.0264 53.6783 30.3168 54.9686 31.9086 54.9686Z" fill="#D8D8D8"/>
</svg>
