<svg width="17" height="16" viewBox="0 0 17 16" fill="none" xmlns="http://www.w3.org/2000/svg">
<path d="M12.0098 10.2057L11.5923 10.6208C11.5923 10.6208 10.5999 11.6076 7.89117 8.91414C5.18244 6.2208 6.17481 5.23406 6.17481 5.23406L6.43771 4.97264C7.08542 4.32864 7.14647 3.2947 6.58135 2.53989L5.42549 0.995861C4.72609 0.0616309 3.37463 -0.0617799 2.57299 0.735298L1.13419 2.16593C0.736709 2.56116 0.470344 3.07349 0.502648 3.64185C0.585285 5.09587 1.24315 8.22435 4.91408 11.8744C8.80692 15.7451 12.4596 15.899 13.9533 15.7597C14.4257 15.7157 14.8366 15.4751 15.1677 15.1458L16.4699 13.8511C17.3489 12.9771 17.101 11.4787 15.9764 10.8674L14.2251 9.91532C13.4866 9.51391 12.587 9.6318 12.0098 10.2057Z" fill="#5C77FF"/>
</svg>
