<svg width="300" height="300" viewBox="0 0 300 300" fill="none" xmlns="http://www.w3.org/2000/svg">
<g clip-path="url(#clip0_195_2)">
<rect width="300" height="300" fill="white"/>
<path d="M12.6476 155.132C12.6476 154.553 12.7865 154.05 13.0642 153.622C13.342 153.193 13.6806 152.866 14.0799 152.641C14.485 152.415 14.8901 152.215 15.2952 152.042C15.7002 151.862 16.0417 151.666 16.3195 151.451C16.5972 151.237 16.7361 151.023 16.7361 150.809C16.7361 150.595 16.7853 150.439 16.8837 150.34C16.9879 150.236 17.1152 150.184 17.2656 150.184H19.2274C19.3837 150.184 19.511 150.236 19.6094 150.34C19.7078 150.439 19.757 150.566 19.757 150.722C19.757 151.22 19.6615 151.66 19.4705 152.042C19.2853 152.418 19.048 152.716 18.7587 152.936C18.4751 153.156 18.1684 153.361 17.8386 153.552C17.5087 153.737 17.202 153.894 16.9184 154.021C16.2529 154.328 15.9202 154.715 15.9202 155.184C15.9202 155.647 16.0764 155.988 16.3889 156.208C16.7014 156.434 17.202 156.547 17.8906 156.547H18.3333C19.294 156.547 19.9537 156.194 20.3125 155.488C20.5729 154.944 20.9636 154.669 21.4844 154.663H22.5174C22.7894 154.663 23.0035 154.764 23.1597 154.967C23.3218 155.17 23.4028 155.389 23.4028 155.627C23.4028 156.611 22.9051 157.418 21.9097 158.049C20.9144 158.685 19.8235 159.003 18.6372 159.003H17.6389C14.3114 159.003 12.6476 157.713 12.6476 155.132ZM16.5191 147.571C16.5191 146.79 16.9126 146.399 17.6997 146.399H18.7587C19.1406 146.399 19.4329 146.501 19.6354 146.703C19.838 146.906 19.9392 147.195 19.9392 147.571V148.127C19.9392 148.491 19.838 148.778 19.6354 148.986C19.4329 149.194 19.1406 149.299 18.7587 149.299H17.6997C17.3177 149.299 17.0255 149.194 16.8229 148.986C16.6204 148.778 16.5191 148.491 16.5191 148.127V147.571ZM24.1146 152.814C24.1146 152.473 24.2159 152.23 24.4184 152.085C24.621 151.935 24.8177 151.859 25.0087 151.859H26.0417C26.5625 151.859 26.9589 152.143 27.2309 152.71C27.5029 153.277 28.1134 153.561 29.0625 153.561L32.1007 153.622C33.1192 153.622 33.6285 153.289 33.6285 152.623C33.6285 152.12 33.0064 151.723 31.7622 151.434C31.2066 151.301 30.5932 151.171 29.9219 151.043C29.2506 150.91 28.5822 150.745 27.9167 150.549C27.257 150.352 26.6493 150.12 26.0938 149.854C25.5382 149.588 25.0868 149.223 24.7396 148.76C24.3982 148.292 24.2274 147.742 24.2274 147.111C24.2274 145.948 24.6412 145.054 25.4688 144.429C26.2963 143.798 27.7199 143.483 29.7396 143.483L31.9445 143.535C33.1308 143.535 34.1985 143.841 35.1476 144.455C36.1024 145.063 36.5799 145.823 36.5799 146.738C36.5799 147.079 36.4786 147.325 36.2761 147.476C36.0735 147.626 35.8796 147.701 35.6945 147.701H34.6615C34.1406 147.701 33.7442 147.418 33.4722 146.851C33.2002 146.278 32.5897 145.991 31.6406 145.991L29.0278 145.939C28.0093 145.939 27.5 146.272 27.5 146.938C27.5 147.302 27.8212 147.6 28.4636 147.832C29.1117 148.063 29.8929 148.269 30.8073 148.448C31.7274 148.622 32.6505 148.833 33.5764 149.082C34.5023 149.33 35.2865 149.741 35.9288 150.314C36.577 150.881 36.9011 151.59 36.9011 152.441C36.9011 153.604 36.4844 154.501 35.6511 155.132C34.8235 155.757 33.4028 156.069 31.3889 156.069L28.7587 156.017C27.5723 156.017 26.5017 155.714 25.5469 155.106C24.592 154.492 24.1146 153.729 24.1146 152.814ZM39.3229 154.924C38.4201 154.09 37.9688 152.863 37.9688 151.243C37.9688 149.617 38.4201 148.39 39.3229 147.563C40.2257 146.729 41.522 146.313 43.2118 146.313C44.9074 146.313 46.2066 146.729 47.1094 147.563C48.0122 148.39 48.4636 149.617 48.4636 151.243C48.4636 152.863 48.0122 154.09 47.1094 154.924C46.2066 155.757 44.9074 156.174 43.2118 156.174C41.522 156.174 40.2257 155.757 39.3229 154.924ZM41.5191 148.986C41.1603 149.455 40.9809 150.204 40.9809 151.234C40.9809 152.264 41.1603 153.017 41.5191 153.491C41.8779 153.966 42.4421 154.203 43.2118 154.203C43.9873 154.203 44.5544 153.966 44.9132 153.491C45.2778 153.017 45.4601 152.264 45.4601 151.234C45.4601 150.204 45.2778 149.455 44.9132 148.986C44.5544 148.517 43.9873 148.283 43.2118 148.283C42.4421 148.283 41.8779 148.517 41.5191 148.986ZM50.0695 144.09C50.0695 143.934 50.1186 143.807 50.217 143.708C50.3212 143.604 50.4485 143.552 50.599 143.552H52.5434C52.6939 143.552 52.8183 143.604 52.9167 143.708C53.0208 143.807 53.0729 143.934 53.0729 144.09V146.755C54.0104 146.46 54.8467 146.313 55.5816 146.313C57.0052 146.313 58.1366 146.738 58.9757 147.589C59.8148 148.433 60.2344 149.655 60.2344 151.252C60.2344 154.533 58.397 156.174 54.7222 156.174C53.8831 156.174 53.0122 156.081 52.1094 155.896C51.2124 155.705 50.5324 155.473 50.0695 155.201V144.09ZM53.0729 148.76V153.882C53.5706 154.015 54.2043 154.082 54.974 154.082C55.7436 154.082 56.2963 153.859 56.632 153.413C56.9734 152.968 57.1441 152.247 57.1441 151.252C57.1441 150.256 56.9763 149.536 56.6406 149.09C56.3108 148.639 55.7494 148.413 54.9566 148.413C54.4473 148.413 53.8195 148.529 53.0729 148.76ZM68.4201 148.691L67.0833 148.639C66.3021 148.639 65.5556 149.067 64.8438 149.924V155.47C64.8438 155.627 64.7917 155.754 64.6875 155.852C64.5891 155.951 64.4647 156 64.3142 156H62.3698C62.2136 156 62.0862 155.951 61.9879 155.852C61.8895 155.754 61.8403 155.627 61.8403 155.47V147.024C61.8403 146.868 61.8895 146.741 61.9879 146.642C62.092 146.538 62.2193 146.486 62.3698 146.486H64.3142C64.4705 146.486 64.5978 146.538 64.6962 146.642C64.7946 146.741 64.8438 146.868 64.8438 147.024V147.571C65.434 147.143 66.0012 146.828 66.5451 146.625C67.0949 146.417 67.8125 146.313 68.6979 146.313C68.8542 146.313 68.9815 146.365 69.0799 146.469C69.184 146.567 69.2361 146.692 69.2361 146.842V148.161C69.2361 148.318 69.184 148.445 69.0799 148.543C68.9815 148.642 68.8542 148.691 68.6979 148.691H68.4201ZM71.1979 154.906C70.3067 154.061 69.8611 152.846 69.8611 151.26C69.8611 149.669 70.3096 148.448 71.2066 147.597C72.1036 146.741 73.3478 146.313 74.9392 146.313C76.5307 146.313 77.772 146.729 78.6632 147.563C79.5544 148.39 80 149.579 80 151.13V151.625C80 151.781 79.9479 151.911 79.8438 152.016C79.7454 152.114 79.6181 152.163 79.4618 152.163H72.9254C72.9832 152.875 73.1858 153.393 73.533 153.717C73.886 154.041 74.4473 154.203 75.217 154.203C75.9867 154.203 76.5133 154.03 76.7969 153.682C77.0804 153.335 77.4306 153.159 77.8472 153.153H79.1406C79.2969 153.153 79.4242 153.205 79.5226 153.309C79.6267 153.407 79.6788 153.535 79.6788 153.691C79.6788 155.352 78.0961 156.179 74.9306 156.174C73.3333 156.174 72.0891 155.751 71.1979 154.906ZM72.908 150.332H76.9445C76.8866 148.966 76.2153 148.283 74.9306 148.283C73.6516 148.283 72.9774 148.966 72.908 150.332ZM87.2917 151.234C87.2917 147.953 89.1291 146.313 92.8038 146.313C93.6487 146.313 94.5197 146.408 95.4167 146.599C96.3195 146.784 97.0023 147.013 97.4653 147.285V158.396C97.4653 158.552 97.4132 158.679 97.309 158.778C97.2107 158.882 97.0833 158.934 96.9271 158.934H94.9913C94.8409 158.934 94.7135 158.882 94.6094 158.778C94.511 158.679 94.4618 158.552 94.4618 158.396V155.731C93.5243 156.026 92.6881 156.174 91.9531 156.174C90.5295 156.174 89.3953 155.751 88.5504 154.906C87.7112 154.061 87.2917 152.837 87.2917 151.234ZM92.5781 154.082C93.0874 154.082 93.7153 153.963 94.4618 153.726V148.604C93.9641 148.477 93.3304 148.413 92.5608 148.413C91.7911 148.413 91.2355 148.636 90.8941 149.082C90.5585 149.521 90.3906 150.239 90.3906 151.234C90.3906 152.23 90.5556 152.953 90.8854 153.405C91.2153 153.856 91.7795 154.082 92.5781 154.082ZM99.6007 151.998V147.024C99.6007 146.868 99.6499 146.741 99.7483 146.642C99.8524 146.538 99.9797 146.486 100.13 146.486H102.075C102.225 146.486 102.35 146.538 102.448 146.642C102.552 146.741 102.604 146.868 102.604 147.024V151.998C102.604 153.387 103.154 154.082 104.253 154.082C104.977 154.082 105.755 153.665 106.589 152.832V147.024C106.589 146.868 106.638 146.741 106.736 146.642C106.84 146.538 106.968 146.486 107.118 146.486H109.054C109.21 146.486 109.337 146.538 109.436 146.642C109.54 146.741 109.592 146.868 109.592 147.024V155.47C109.592 155.621 109.54 155.748 109.436 155.852C109.337 155.951 109.21 156 109.054 156H107.118C106.968 156 106.84 155.951 106.736 155.852C106.638 155.748 106.589 155.621 106.589 155.47V154.915C105.593 155.754 104.531 156.174 103.403 156.174C102.28 156.174 101.366 155.832 100.66 155.149C99.9537 154.461 99.6007 153.41 99.6007 151.998ZM112.535 154.906C111.644 154.061 111.198 152.846 111.198 151.26C111.198 149.669 111.646 148.448 112.543 147.597C113.44 146.741 114.685 146.313 116.276 146.313C117.867 146.313 119.109 146.729 120 147.563C120.891 148.39 121.337 149.579 121.337 151.13V151.625C121.337 151.781 121.285 151.911 121.181 152.016C121.082 152.114 120.955 152.163 120.799 152.163H114.262C114.32 152.875 114.523 153.393 114.87 153.717C115.223 154.041 115.784 154.203 116.554 154.203C117.324 154.203 117.85 154.03 118.134 153.682C118.417 153.335 118.767 153.159 119.184 153.153H120.477C120.634 153.153 120.761 153.205 120.859 153.309C120.964 153.407 121.016 153.535 121.016 153.691C121.016 155.352 119.433 156.179 116.267 156.174C114.67 156.174 113.426 155.751 112.535 154.906ZM114.245 150.332H118.281C118.223 148.966 117.552 148.283 116.267 148.283C114.988 148.283 114.314 148.966 114.245 150.332ZM129.965 154.906C129.074 154.061 128.628 152.846 128.628 151.26C128.628 149.669 129.077 148.448 129.974 147.597C130.871 146.741 132.115 146.313 133.707 146.313C135.298 146.313 136.539 146.729 137.431 147.563C138.322 148.39 138.767 149.579 138.767 151.13V151.625C138.767 151.781 138.715 151.911 138.611 152.016C138.513 152.114 138.385 152.163 138.229 152.163H131.693C131.751 152.875 131.953 153.393 132.3 153.717C132.653 154.041 133.215 154.203 133.984 154.203C134.754 154.203 135.281 154.03 135.564 153.682C135.848 153.335 136.198 153.159 136.615 153.153H137.908C138.064 153.153 138.192 153.205 138.29 153.309C138.394 153.407 138.446 153.535 138.446 153.691C138.446 155.352 136.863 156.179 133.698 156.174C132.101 156.174 130.856 155.751 129.965 154.906ZM131.675 150.332H135.712C135.654 148.966 134.983 148.283 133.698 148.283C132.419 148.283 131.745 148.966 131.675 150.332ZM139.826 149.116C139.826 147.247 141.334 146.313 144.349 146.313C147.52 146.313 149.106 147.143 149.106 148.804C149.106 148.954 149.057 149.082 148.958 149.186C148.86 149.284 148.733 149.333 148.576 149.333H147.283C146.866 149.333 146.516 149.16 146.233 148.813C145.949 148.459 145.391 148.283 144.557 148.283C143.411 148.283 142.839 148.561 142.839 149.116C142.839 149.377 143.061 149.594 143.507 149.767C143.958 149.941 144.505 150.094 145.148 150.227C145.796 150.355 146.441 150.52 147.083 150.722C147.726 150.925 148.27 151.249 148.715 151.694C149.167 152.134 149.392 152.693 149.392 153.37C149.392 155.239 147.801 156.174 144.618 156.174C141.435 156.174 139.844 155.346 139.844 153.691C139.844 153.535 139.893 153.407 139.991 153.309C140.095 153.205 140.226 153.153 140.382 153.153H141.675C142.092 153.153 142.442 153.329 142.726 153.682C143.009 154.03 143.568 154.203 144.401 154.203C145.726 154.203 146.389 153.925 146.389 153.37C146.389 153.109 146.163 152.892 145.712 152.719C145.266 152.545 144.719 152.392 144.071 152.259C143.423 152.12 142.778 151.952 142.135 151.755C141.499 151.553 140.955 151.229 140.503 150.783C140.052 150.337 139.826 149.782 139.826 149.116ZM158.038 154.906C157.147 154.061 156.701 152.846 156.701 151.26C156.701 149.669 157.15 148.448 158.047 147.597C158.944 146.741 160.188 146.313 161.78 146.313C163.371 146.313 164.612 146.729 165.503 147.563C166.395 148.39 166.84 149.579 166.84 151.13V151.625C166.84 151.781 166.788 151.911 166.684 152.016C166.586 152.114 166.458 152.163 166.302 152.163H159.766C159.823 152.875 160.026 153.393 160.373 153.717C160.726 154.041 161.288 154.203 162.057 154.203C162.827 154.203 163.354 154.03 163.637 153.682C163.921 153.335 164.271 153.159 164.687 153.153H165.981C166.137 153.153 166.264 153.205 166.363 153.309C166.467 153.407 166.519 153.535 166.519 153.691C166.519 155.352 164.936 156.179 161.771 156.174C160.174 156.174 158.929 155.751 158.038 154.906ZM159.748 150.332H163.785C163.727 148.966 163.056 148.283 161.771 148.283C160.492 148.283 159.818 148.966 159.748 150.332ZM167.899 149.116C167.899 147.247 169.407 146.313 172.422 146.313C175.593 146.313 177.179 147.143 177.179 148.804C177.179 148.954 177.13 149.082 177.031 149.186C176.933 149.284 176.806 149.333 176.649 149.333H175.356C174.939 149.333 174.589 149.16 174.306 148.813C174.022 148.459 173.464 148.283 172.63 148.283C171.484 148.283 170.911 148.561 170.911 149.116C170.911 149.377 171.134 149.594 171.58 149.767C172.031 149.941 172.578 150.094 173.22 150.227C173.869 150.355 174.514 150.52 175.156 150.722C175.799 150.925 176.343 151.249 176.788 151.694C177.24 152.134 177.465 152.693 177.465 153.37C177.465 155.239 175.874 156.174 172.691 156.174C169.508 156.174 167.917 155.346 167.917 153.691C167.917 153.535 167.966 153.407 168.064 153.309C168.168 153.205 168.299 153.153 168.455 153.153H169.748C170.165 153.153 170.515 153.329 170.799 153.682C171.082 154.03 171.641 154.203 172.474 154.203C173.799 154.203 174.462 153.925 174.462 153.37C174.462 153.109 174.236 152.892 173.785 152.719C173.339 152.545 172.792 152.392 172.144 152.259C171.496 152.12 170.851 151.952 170.208 151.755C169.572 151.553 169.028 151.229 168.576 150.783C168.125 150.337 167.899 149.782 167.899 149.116ZM183.611 154.116L184.8 154.012H185.122C185.278 154.012 185.405 154.061 185.503 154.16C185.608 154.258 185.66 154.385 185.66 154.542V155.47C185.66 155.598 185.608 155.714 185.503 155.818C185.405 155.916 185.278 155.977 185.122 156C184.531 156.116 183.762 156.174 182.813 156.174C180.324 156.174 179.08 154.872 179.08 152.267V144.09C179.08 143.934 179.129 143.807 179.227 143.708C179.332 143.604 179.459 143.552 179.609 143.552H181.554C181.704 143.552 181.829 143.604 181.927 143.708C182.031 143.807 182.083 143.934 182.083 144.09V146.99H184.505C184.656 146.99 184.78 147.039 184.878 147.137C184.983 147.236 185.035 147.363 185.035 147.519V148.552C185.035 148.708 184.983 148.836 184.878 148.934C184.78 149.032 184.656 149.082 184.505 149.082H182.083V152.267C182.083 152.858 182.222 153.315 182.5 153.639C182.778 153.957 183.148 154.116 183.611 154.116ZM187.604 155.375C186.84 154.843 186.458 154.09 186.458 153.118C186.458 152.146 186.84 151.399 187.604 150.878C188.374 150.358 189.363 150.097 190.573 150.097H193.446C193.446 149.42 193.304 148.948 193.021 148.682C192.737 148.416 192.24 148.283 191.528 148.283C190.822 148.283 190.324 148.459 190.035 148.813C189.751 149.16 189.401 149.333 188.984 149.333H187.691C187.535 149.333 187.405 149.284 187.3 149.186C187.202 149.082 187.153 148.954 187.153 148.804C187.153 147.143 188.73 146.313 191.884 146.313C193.261 146.313 194.366 146.622 195.2 147.241C196.033 147.855 196.45 148.807 196.45 150.097V155.47C196.45 155.627 196.4 155.754 196.302 155.852C196.204 155.951 196.076 156 195.92 156H194.245C194.089 156 193.961 155.951 193.863 155.852C193.764 155.748 193.715 155.621 193.715 155.47V155.201C192.801 155.855 191.745 156.179 190.547 156.174C189.355 156.174 188.374 155.907 187.604 155.375ZM190.781 152.068C190.376 152.068 190.055 152.166 189.818 152.363C189.586 152.56 189.47 152.814 189.47 153.127C189.47 153.439 189.592 153.697 189.835 153.899C190.078 154.102 190.422 154.203 190.868 154.203C191.759 154.203 192.619 153.943 193.446 153.422V152.068H190.781ZM204.288 149.116C204.288 147.247 205.796 146.313 208.811 146.313C211.982 146.313 213.568 147.143 213.568 148.804C213.568 148.954 213.519 149.082 213.42 149.186C213.322 149.284 213.194 149.333 213.038 149.333H211.745C211.328 149.333 210.978 149.16 210.694 148.813C210.411 148.459 209.852 148.283 209.019 148.283C207.873 148.283 207.3 148.561 207.3 149.116C207.3 149.377 207.523 149.594 207.969 149.767C208.42 149.941 208.967 150.094 209.609 150.227C210.258 150.355 210.903 150.52 211.545 150.722C212.188 150.925 212.731 151.249 213.177 151.694C213.628 152.134 213.854 152.693 213.854 153.37C213.854 155.239 212.263 156.174 209.08 156.174C205.897 156.174 204.306 155.346 204.306 153.691C204.306 153.535 204.355 153.407 204.453 153.309C204.557 153.205 204.688 153.153 204.844 153.153H206.137C206.554 153.153 206.904 153.329 207.188 153.682C207.471 154.03 208.03 154.203 208.863 154.203C210.188 154.203 210.851 153.925 210.851 153.37C210.851 153.109 210.625 152.892 210.174 152.719C209.728 152.545 209.181 152.392 208.533 152.259C207.885 152.12 207.24 151.952 206.597 151.755C205.961 151.553 205.417 151.229 204.965 150.783C204.514 150.337 204.288 149.782 204.288 149.116ZM216.267 154.906C215.376 154.061 214.931 152.846 214.931 151.26C214.931 149.669 215.379 148.448 216.276 147.597C217.173 146.741 218.417 146.313 220.009 146.313C221.6 146.313 222.841 146.729 223.733 147.563C224.624 148.39 225.069 149.579 225.069 151.13V151.625C225.069 151.781 225.017 151.911 224.913 152.016C224.815 152.114 224.688 152.163 224.531 152.163H217.995C218.053 152.875 218.255 153.393 218.602 153.717C218.955 154.041 219.517 154.203 220.286 154.203C221.056 154.203 221.583 154.03 221.866 153.682C222.15 153.335 222.5 153.159 222.917 153.153H224.21C224.366 153.153 224.494 153.205 224.592 153.309C224.696 153.407 224.748 153.535 224.748 153.691C224.748 155.352 223.166 156.179 220 156.174C218.403 156.174 217.159 155.751 216.267 154.906ZM217.977 150.332H222.014C221.956 148.966 221.285 148.283 220 148.283C218.721 148.283 218.047 148.966 217.977 150.332ZM231.267 156.174C229.647 156.174 228.385 155.757 227.483 154.924C226.58 154.09 226.128 152.866 226.128 151.252C226.128 149.631 226.577 148.405 227.474 147.571C228.371 146.732 229.618 146.313 231.215 146.313C232.818 146.313 234.048 146.567 234.905 147.076C235.767 147.586 236.198 148.338 236.198 149.333C236.198 149.49 236.146 149.617 236.042 149.715C235.943 149.814 235.816 149.863 235.66 149.863H234.366C233.973 149.863 233.64 149.652 233.368 149.229C233.027 148.685 232.422 148.413 231.554 148.413C230.692 148.413 230.087 148.636 229.74 149.082C229.398 149.521 229.227 150.242 229.227 151.243C229.227 152.244 229.404 152.968 229.757 153.413C230.116 153.859 230.735 154.082 231.615 154.082C232.5 154.082 233.113 153.81 233.455 153.266C233.727 152.837 234.06 152.623 234.453 152.623H235.747C235.903 152.623 236.03 152.675 236.128 152.78C236.233 152.878 236.285 153.002 236.285 153.153C236.285 154.148 235.854 154.9 234.991 155.41C234.135 155.919 232.894 156.174 231.267 156.174ZM242.309 156.174C240.689 156.174 239.427 155.757 238.524 154.924C237.622 154.09 237.17 152.866 237.17 151.252C237.17 149.631 237.619 148.405 238.516 147.571C239.413 146.732 240.66 146.313 242.257 146.313C243.86 146.313 245.09 146.567 245.946 147.076C246.808 147.586 247.24 148.338 247.24 149.333C247.24 149.49 247.187 149.617 247.083 149.715C246.985 149.814 246.858 149.863 246.701 149.863H245.408C245.014 149.863 244.682 149.652 244.41 149.229C244.068 148.685 243.464 148.413 242.595 148.413C241.733 148.413 241.128 148.636 240.781 149.082C240.44 149.521 240.269 150.242 240.269 151.243C240.269 152.244 240.446 152.968 240.799 153.413C241.157 153.859 241.777 154.082 242.656 154.082C243.542 154.082 244.155 153.81 244.497 153.266C244.769 152.837 245.101 152.623 245.495 152.623H246.788C246.944 152.623 247.072 152.675 247.17 152.78C247.274 152.878 247.326 153.002 247.326 153.153C247.326 154.148 246.895 154.9 246.033 155.41C245.177 155.919 243.935 156.174 242.309 156.174ZM248.75 144.672V144.377C248.75 144.07 248.837 143.827 249.01 143.648C249.19 143.468 249.436 143.378 249.748 143.378H250.825C251.131 143.378 251.374 143.468 251.554 143.648C251.733 143.821 251.823 144.064 251.823 144.377V144.672C251.823 144.979 251.733 145.222 251.554 145.401C251.38 145.58 251.137 145.67 250.825 145.67H249.748C249.442 145.67 249.199 145.58 249.019 145.401C248.84 145.222 248.75 144.979 248.75 144.672ZM248.785 155.47V147.233C248.785 147.076 248.834 146.949 248.932 146.851C249.036 146.752 249.164 146.703 249.314 146.703H251.259C251.415 146.703 251.542 146.755 251.641 146.859C251.739 146.958 251.788 147.082 251.788 147.233V155.47C251.788 155.627 251.736 155.754 251.632 155.852C251.534 155.951 251.409 156 251.259 156H249.314C249.158 156 249.031 155.951 248.932 155.852C248.834 155.754 248.785 155.627 248.785 155.47ZM253.42 151.234C253.42 147.953 255.168 146.313 258.663 146.313C262.164 146.313 263.915 147.953 263.915 151.234C263.915 152.861 263.466 154.09 262.569 154.924C261.672 155.757 260.37 156.174 258.663 156.174C256.962 156.174 255.663 155.757 254.766 154.924C253.869 154.09 253.42 152.861 253.42 151.234ZM260.911 151.243C260.911 149.27 260.165 148.283 258.672 148.283C257.179 148.283 256.432 149.27 256.432 151.243C256.432 153.216 257.179 154.203 258.672 154.203C260.165 154.203 260.911 153.216 260.911 151.243ZM257.995 144.429L258.42 142.788C258.646 142.123 259.025 141.793 259.557 141.799H260.339C260.72 141.799 260.969 141.92 261.085 142.163C261.131 142.256 261.155 142.369 261.155 142.502C261.155 142.629 261.097 142.785 260.981 142.97L260.035 144.602C259.716 145.146 259.361 145.418 258.967 145.418H258.559C258.131 145.418 257.92 145.233 257.925 144.863C257.925 144.741 257.948 144.597 257.995 144.429ZM265.521 155.47V147.024C265.521 146.868 265.57 146.741 265.668 146.642C265.773 146.538 265.9 146.486 266.05 146.486H267.995C268.145 146.486 268.27 146.538 268.368 146.642C268.472 146.741 268.524 146.868 268.524 147.024V147.571C269.52 146.732 270.579 146.313 271.701 146.313C272.83 146.313 273.747 146.657 274.453 147.345C275.159 148.028 275.512 149.076 275.512 150.488V155.47C275.512 155.621 275.46 155.748 275.356 155.852C275.258 155.951 275.13 156 274.974 156H273.038C272.888 156 272.76 155.951 272.656 155.852C272.558 155.748 272.509 155.621 272.509 155.47V150.488C272.509 149.105 271.956 148.413 270.851 148.413C270.127 148.413 269.352 148.827 268.524 149.655V155.47C268.524 155.621 268.472 155.748 268.368 155.852C268.27 155.951 268.145 156 267.995 156H266.05C265.9 156 265.773 155.951 265.668 155.852C265.57 155.748 265.521 155.621 265.521 155.47ZM276.762 146.859C276.762 145.876 277.26 145.068 278.255 144.438C279.256 143.801 280.347 143.483 281.528 143.483H282.526C285.859 143.483 287.526 144.776 287.526 147.363C287.526 147.942 287.384 148.445 287.101 148.873C286.823 149.296 286.482 149.62 286.076 149.845C285.677 150.071 285.275 150.274 284.87 150.453C284.471 150.633 284.129 150.829 283.846 151.043C283.568 151.252 283.429 151.463 283.429 151.677C283.429 152.094 283.252 152.302 282.899 152.302H280.946C280.79 152.302 280.66 152.253 280.556 152.155C280.457 152.05 280.408 151.923 280.408 151.773C280.408 151.275 280.503 150.835 280.694 150.453C280.885 150.071 281.123 149.773 281.406 149.559C281.69 149.339 281.997 149.134 282.326 148.943C282.662 148.752 282.972 148.593 283.255 148.465C283.921 148.159 284.253 147.774 284.253 147.311C284.253 146.848 284.094 146.503 283.776 146.278C283.464 146.052 282.963 145.939 282.274 145.939H281.832C280.871 145.939 280.214 146.295 279.861 147.007C279.601 147.551 279.21 147.823 278.689 147.823H277.656C277.373 147.823 277.153 147.722 276.997 147.519C276.84 147.317 276.762 147.097 276.762 146.859ZM280.234 154.915V154.368C280.234 153.986 280.339 153.694 280.547 153.491C280.755 153.289 281.042 153.188 281.406 153.188H282.474C282.839 153.188 283.125 153.289 283.333 153.491C283.542 153.694 283.646 153.986 283.646 154.368V154.915C283.646 155.285 283.542 155.575 283.333 155.783C283.125 155.986 282.839 156.087 282.474 156.087H281.406C281.042 156.087 280.755 155.986 280.547 155.783C280.339 155.575 280.234 155.285 280.234 154.915Z" fill="#5C77FF"/>
<rect x="269" y="265" width="114.722" height="5.55556" rx="2.77778" fill="#5C77FF"/>
</g>
<defs>
<clipPath id="clip0_195_2">
<rect width="300" height="300" fill="white"/>
</clipPath>
</defs>
</svg>
