<svg width="30" height="30" viewBox="0 0 140 140" fill="none" xmlns="http://www.w3.org/2000/svg">
<path d="M139.167 69.5833C139.167 108.013 108.013 139.167 69.5833 139.167C31.1535 139.167 0 108.013 0 69.5833C0 31.1535 31.1535 0 69.5833 0C108.013 0 139.167 31.1535 139.167 69.5833Z" fill="#E2E2E2"/>
<path d="M103.032 118.37C93.5186 124.905 81.9977 128.729 69.5833 128.729C57.169 128.729 45.6483 124.904 36.1346 118.369C31.9328 115.483 30.1372 109.985 32.5802 105.511C37.6446 96.2351 48.0802 90.4583 69.5833 90.4583C91.0867 90.4583 101.522 96.2358 106.586 105.511C109.029 109.985 107.233 115.483 103.032 118.37Z" fill="white"/>
<path d="M69.5827 69.5833C81.112 69.5833 90.4577 60.2376 90.4577 48.7083C90.4577 37.1794 81.112 27.8333 69.5827 27.8333C58.0542 27.8333 48.708 37.1794 48.708 48.7083C48.708 60.2376 58.0542 69.5833 69.5827 69.5833Z" fill="white"/>
</svg>
