<svg width="25" height="25" viewBox="0 0 529 529" fill="none" xmlns="http://www.w3.org/2000/svg">
<path fill-rule="evenodd" clip-rule="evenodd" d="M318.127 30.9934C288.475 4.63762 243.797 4.63762 214.145 30.9934L14.0388 208.867C3.27106 218.437 2.30121 234.926 11.8724 245.694C21.4436 256.459 37.9313 257.43 48.6988 247.859L57.4541 240.078V386.591C57.4528 409.716 57.4517 429.64 59.5967 445.596C61.8956 462.695 67.0801 479.087 80.3747 492.38C93.6693 505.675 110.06 510.859 127.159 513.159C143.115 515.304 163.039 515.301 186.163 515.301H346.108C369.233 515.301 389.157 515.304 405.113 513.159C422.212 510.859 438.604 505.675 451.897 492.38C465.193 479.087 470.376 462.695 472.677 445.596C474.821 429.64 474.821 409.716 474.818 386.594V240.078L483.572 247.859C494.34 257.43 510.829 256.459 520.4 245.694C529.97 234.926 529.003 218.437 518.235 208.867L318.127 30.9934Z" fill="#D8D8D8"/>
</svg>
