<svg width="25" height="25" viewBox="0 0 30 30" fill="none" xmlns="http://www.w3.org/2000/svg">
<g clip-path="url(#clip0_172_7)">
<path d="M7.44335 15.9222L15.5438 7.82289L11.7142 3.8302L8.10018 7.44419C8.05708 7.48737 8.00589 7.52163 7.94954 7.54501C7.89318 7.56838 7.83277 7.58041 7.77176 7.58041C7.71076 7.58041 7.65035 7.56838 7.59399 7.54501C7.53764 7.52163 7.48645 7.48737 7.44335 7.44419L6.78652 6.78737C6.60489 6.60573 6.60489 6.3116 6.78652 6.13055L10.4005 2.51655L8.42947 0.544911C7.70351 -0.181051 6.52696 -0.181051 5.80099 0.544911L0.544624 5.80126C-0.180754 6.52722 -0.18134 7.70376 0.544624 8.42972L7.44335 15.9222ZM29.1755 7.45591C30.2747 6.35671 30.2741 4.57491 29.1755 3.47571L26.5241 0.824398C25.4249 -0.274799 23.6425 -0.274799 22.5427 0.824398L19.8463 3.52024L26.479 10.1529L29.1755 7.45591ZM18.5203 4.84678L1.11825 22.2464L0.0190461 28.5416C-0.129194 29.3906 0.61025 30.1301 1.45985 29.9807L7.75565 28.8768L25.1531 11.4789L18.5203 4.84678ZM29.4555 21.5709L27.4845 19.5998L23.8705 23.2138C23.6888 23.3954 23.3947 23.3954 23.2136 23.2138L22.5568 22.557C22.3758 22.3754 22.3758 22.0812 22.5568 21.9002L26.1708 18.2862L22.1812 14.4508L14.3858 22.2464L21.5707 29.4551C22.2966 30.1811 23.4732 30.1811 24.1992 29.4551L29.4555 24.1993C30.1815 23.4734 30.1815 22.2968 29.4555 21.5709Z" fill="#D8D8D8"/>
<path d="M7.44335 15.9222L15.5438 7.82289L11.7142 3.8302L8.10018 7.44419C8.05708 7.48737 8.00589 7.52163 7.94954 7.54501C7.89318 7.56838 7.83277 7.58041 7.77176 7.58041C7.71076 7.58041 7.65035 7.56838 7.59399 7.54501C7.53764 7.52163 7.48645 7.48737 7.44335 7.44419L6.78652 6.78737C6.60489 6.60573 6.60489 6.3116 6.78652 6.13055L10.4005 2.51655L8.42947 0.544911C7.70351 -0.181051 6.52696 -0.181051 5.80099 0.544911L0.544624 5.80126C-0.180754 6.52722 -0.18134 7.70376 0.544624 8.42972L7.44335 15.9222ZM29.1755 7.45591C30.2747 6.35671 30.2741 4.57491 29.1755 3.47571L26.5241 0.824398C25.4249 -0.274799 23.6425 -0.274799 22.5427 0.824398L19.8463 3.52024L26.479 10.1529L29.1755 7.45591ZM18.5203 4.84678L1.11825 22.2464L0.0190461 28.5416C-0.129194 29.3906 0.61025 30.1301 1.45985 29.9807L7.75565 28.8768L25.1531 11.4789L18.5203 4.84678ZM29.4555 21.5709L27.4845 19.5998L23.8705 23.2138C23.6888 23.3954 23.3947 23.3954 23.2136 23.2138L22.5568 22.557C22.3758 22.3754 22.3758 22.0812 22.5568 21.9002L26.1708 18.2862L22.1812 14.4508L14.3858 22.2464L21.5707 29.4551C22.2966 30.1811 23.4732 30.1811 24.1992 29.4551L29.4555 24.1993C30.1815 23.4734 30.1815 22.2968 29.4555 21.5709Z" fill="#D8D8D8"/>
</g>
<defs>
<clipPath id="clip0_172_7">
<rect width="30" height="30" fill="white"/>
</clipPath>
</defs>
</svg>
