<svg width="800" height="800" viewBox="0 0 800 800" fill="none" xmlns="http://www.w3.org/2000/svg">
<path d="M400 66.6666C334.073 66.6666 269.626 86.2163 214.81 122.843C159.994 159.471 117.269 211.53 92.0401 272.439C66.8109 333.347 60.2098 400.37 73.0716 465.03C85.9333 529.69 117.68 589.085 164.298 635.702C210.915 682.32 270.31 714.067 334.97 726.928C399.63 739.79 466.652 733.189 527.561 707.96C588.47 682.731 640.529 640.006 677.156 585.19C713.784 530.374 733.333 465.927 733.333 400C733.333 356.226 724.711 312.881 707.96 272.439C691.208 231.997 666.655 195.251 635.702 164.298C604.749 133.345 568.003 108.792 527.561 92.0401C487.119 75.2885 443.774 66.6666 400 66.6666ZM400 666.667C347.258 666.667 295.701 651.027 251.848 621.725C207.995 592.423 173.815 550.776 153.632 502.049C133.449 453.322 128.168 399.704 138.457 347.976C148.747 296.248 174.144 248.732 211.438 211.438C248.732 174.144 296.248 148.747 347.976 138.457C399.704 128.168 453.322 133.449 502.049 153.632C550.776 173.815 592.423 207.995 621.725 251.848C651.027 295.701 666.667 347.258 666.667 400C666.667 470.724 638.571 538.552 588.562 588.562C538.552 638.571 470.724 666.667 400 666.667Z" fill="#D8D8D8"/>
<path d="M400.333 293.667C418.743 293.667 433.667 278.743 433.667 260.333C433.667 241.924 418.743 227 400.333 227C381.924 227 367 241.924 367 260.333C367 278.743 381.924 293.667 400.333 293.667Z" fill="#D8D8D8"/>
<path d="M400.333 338C391.493 338 383.014 341.512 376.763 347.763C370.512 354.014 367 362.493 367 371.333V538C367 546.841 370.512 555.319 376.763 561.57C383.014 567.821 391.493 571.333 400.333 571.333C409.174 571.333 417.652 567.821 423.904 561.57C430.155 555.319 433.667 546.841 433.667 538V371.333C433.667 362.493 430.155 354.014 423.904 347.763C417.652 341.512 409.174 338 400.333 338Z" fill="#D8D8D8"/>
</svg>
