<svg width="669" height="584" viewBox="0 0 669 584" fill="none" xmlns="http://www.w3.org/2000/svg">
<path d="M377.213 210.133L204.639 316.498M213.69 342.135L237.673 444.877C250.807 501.146 257.374 529.281 271.828 540.189C284.383 549.664 300.661 552.678 315.776 548.331C333.179 543.321 349.387 519.404 381.804 471.572L589.62 164.914C621.26 118.223 637.081 94.8798 635.411 77.0243C633.962 61.5107 625.363 47.558 612.155 39.2922C596.957 29.7786 568.992 33.4196 513.063 40.7031L145.091 88.6237C87.9647 96.0633 59.4017 99.7828 47.1111 113.054C36.4371 124.58 31.8002 140.451 34.5907 155.91C37.8038 173.711 59.872 192.223 104.008 229.246L187.198 299.028C194.778 305.386 198.569 308.567 201.611 312.33C204.313 315.673 206.572 319.348 208.333 323.267C210.317 327.682 211.441 332.499 213.69 342.135Z" stroke="white" stroke-width="50" stroke-linecap="round" stroke-linejoin="round"/>
</svg>
